solid OpenSCAD_Model
  facet normal 0 0 -1
    outer loop
      vertex 29.7075 6.79246 0
      vertex 8.34246 6.79246 0
      vertex 29.8666 6.92304 0
    endloop
  endfacet
  facet normal 0 0 -1
    outer loop
      vertex 30.0482 62.9299 0
      vertex 8.62982 63.6952 0
      vertex 8.65 63.9 0
    endloop
  endfacet
  facet normal 0 0 -1
    outer loop
      vertex 8.18335 6.92304 0
      vertex 29.8666 6.92304 0
      vertex 8.34246 6.79246 0
    endloop
  endfacet
  facet normal 0 0 -1
    outer loop
      vertex 30.0482 62.9299 0
      vertex 8.57007 63.4982 0
      vertex 8.62982 63.6952 0
    endloop
  endfacet
  facet normal 0 0 -1
    outer loop
      vertex 29.8666 6.92304 0
      vertex 8.18335 6.92304 0
      vertex 30.0482 7.02007 0
    endloop
  endfacet
  facet normal 0 0 -1
    outer loop
      vertex 30.0482 62.9299 0
      vertex 8.47304 63.3167 0
      vertex 8.57007 63.4982 0
    endloop
  endfacet
  facet normal 0 0 -1
    outer loop
      vertex 8.00182 7.02007 0
      vertex 30.0482 7.02007 0
      vertex 8.18335 6.92304 0
    endloop
  endfacet
  facet normal 0 0 -1
    outer loop
      vertex 30.0482 62.9299 0
      vertex 8.34246 63.1575 0
      vertex 8.47304 63.3167 0
    endloop
  endfacet
  facet normal 0 0 -1
    outer loop
      vertex 30.0482 7.02007 0
      vertex 8.00182 7.02007 0
      vertex 30.0482 62.9299 0
    endloop
  endfacet
  facet normal 0 0 -1
    outer loop
      vertex 30.0482 62.9299 0
      vertex 8.18335 63.027 0
      vertex 8.34246 63.1575 0
    endloop
  endfacet
  facet normal 0 0 -1
    outer loop
      vertex 8.00182 62.9299 0
      vertex 30.0482 62.9299 0
      vertex 8.00182 7.02007 0
    endloop
  endfacet
  facet normal 0 0 -1
    outer loop
      vertex 30.0482 62.9299 0
      vertex 8.00182 62.9299 0
      vertex 8.18335 63.027 0
    endloop
  endfacet
  facet normal 0 0 -1
    outer loop
      vertex 7.80484 7.07982 0
      vertex 8.00182 62.9299 0
      vertex 8.00182 7.02007 0
    endloop
  endfacet
  facet normal 0 0 -1
    outer loop
      vertex 7.80484 7.07982 0
      vertex 7.80484 62.8702 0
      vertex 8.00182 62.9299 0
    endloop
  endfacet
  facet normal 0 0 -1
    outer loop
      vertex 7.6 7.1 0
      vertex 7.80484 62.8702 0
      vertex 7.80484 7.07982 0
    endloop
  endfacet
  facet normal 0 0 -1
    outer loop
      vertex 7.6 7.1 0
      vertex 7.6 62.85 0
      vertex 7.80484 62.8702 0
    endloop
  endfacet
  facet normal 0 0 -1
    outer loop
      vertex 7.39515 7.07982 0
      vertex 7.6 62.85 0
      vertex 7.6 7.1 0
    endloop
  endfacet
  facet normal 0 0 -1
    outer loop
      vertex 7.39515 7.07982 0
      vertex 7.39515 62.8702 0
      vertex 7.6 62.85 0
    endloop
  endfacet
  facet normal 0 0 -1
    outer loop
      vertex 7.19818 7.02007 0
      vertex 7.39515 62.8702 0
      vertex 7.39515 7.07982 0
    endloop
  endfacet
  facet normal 0 0 -1
    outer loop
      vertex 7.19818 7.02007 0
      vertex 7.19818 62.9299 0
      vertex 7.39515 62.8702 0
    endloop
  endfacet
  facet normal 0 0 -1
    outer loop
      vertex 7.01665 6.92304 0
      vertex 7.19818 62.9299 0
      vertex 7.19818 7.02007 0
    endloop
  endfacet
  facet normal 0 0 -1
    outer loop
      vertex 7.01665 6.92304 0
      vertex 7.01665 63.027 0
      vertex 7.19818 62.9299 0
    endloop
  endfacet
  facet normal 0 0 -1
    outer loop
      vertex 6.85754 6.79246 0
      vertex 7.01665 63.027 0
      vertex 7.01665 6.92304 0
    endloop
  endfacet
  facet normal 0 0 -1
    outer loop
      vertex 6.85754 6.79246 0
      vertex 6.85754 63.1575 0
      vertex 7.01665 63.027 0
    endloop
  endfacet
  facet normal 0 0 -1
    outer loop
      vertex 6.72696 6.63335 0
      vertex 6.85754 63.1575 0
      vertex 6.85754 6.79246 0
    endloop
  endfacet
  facet normal 0 0 -1
    outer loop
      vertex 6.72696 6.63335 0
      vertex 6.72696 63.3167 0
      vertex 6.85754 63.1575 0
    endloop
  endfacet
  facet normal 0 0 -1
    outer loop
      vertex 0 0 0
      vertex 6.72696 6.63335 0
      vertex 6.62993 6.45182 0
    endloop
  endfacet
  facet normal -0 0 -1
    outer loop
      vertex 6.72696 6.63335 0
      vertex 0 0 0
      vertex 6.72696 63.3167 0
    endloop
  endfacet
  facet normal 0 0 -1
    outer loop
      vertex 0 0 0
      vertex 6.62993 6.45182 0
      vertex 6.57018 6.25484 0
    endloop
  endfacet
  facet normal 0 0 -1
    outer loop
      vertex 0 70 0
      vertex 6.72696 63.3167 0
      vertex 0 0 0
    endloop
  endfacet
  facet normal 0 0 -1
    outer loop
      vertex 0 0 0
      vertex 6.57018 6.25484 0
      vertex 6.55 6.05 0
    endloop
  endfacet
  facet normal 0 0 -1
    outer loop
      vertex 6.72696 63.3167 0
      vertex 0 70 0
      vertex 6.62993 63.4982 0
    endloop
  endfacet
  facet normal 0 0 -1
    outer loop
      vertex 31.323 6.63335 0
      vertex 38 0 0
      vertex 31.4201 6.45182 0
    endloop
  endfacet
  facet normal 0 0 -1
    outer loop
      vertex 38 70 0
      vertex 31.4798 63.6952 0
      vertex 31.5 63.9 0
    endloop
  endfacet
  facet normal 0 0 -1
    outer loop
      vertex 38 0 0
      vertex 31.323 6.63335 0
      vertex 38 70 0
    endloop
  endfacet
  facet normal 0 0 -1
    outer loop
      vertex 38 70 0
      vertex 31.4201 63.4982 0
      vertex 31.4798 63.6952 0
    endloop
  endfacet
  facet normal 0 0 -1
    outer loop
      vertex 31.323 63.3167 0
      vertex 38 70 0
      vertex 31.323 6.63335 0
    endloop
  endfacet
  facet normal 0 0 -1
    outer loop
      vertex 38 70 0
      vertex 31.323 63.3167 0
      vertex 31.4201 63.4982 0
    endloop
  endfacet
  facet normal 0 0 -1
    outer loop
      vertex 31.1925 6.79246 0
      vertex 31.323 63.3167 0
      vertex 31.323 6.63335 0
    endloop
  endfacet
  facet normal 0 0 -1
    outer loop
      vertex 31.1925 6.79246 0
      vertex 31.1925 63.1575 0
      vertex 31.323 63.3167 0
    endloop
  endfacet
  facet normal 0 0 -1
    outer loop
      vertex 31.0333 6.92304 0
      vertex 31.1925 63.1575 0
      vertex 31.1925 6.79246 0
    endloop
  endfacet
  facet normal 0 0 -1
    outer loop
      vertex 31.0333 6.92304 0
      vertex 31.0333 63.027 0
      vertex 31.1925 63.1575 0
    endloop
  endfacet
  facet normal 0 0 -1
    outer loop
      vertex 30.8518 7.02007 0
      vertex 31.0333 63.027 0
      vertex 31.0333 6.92304 0
    endloop
  endfacet
  facet normal 0 0 -1
    outer loop
      vertex 30.8518 7.02007 0
      vertex 30.8518 62.9299 0
      vertex 31.0333 63.027 0
    endloop
  endfacet
  facet normal 0 0 -1
    outer loop
      vertex 30.6548 7.07982 0
      vertex 30.8518 62.9299 0
      vertex 30.8518 7.02007 0
    endloop
  endfacet
  facet normal 0 0 -1
    outer loop
      vertex 30.6548 7.07982 0
      vertex 30.6548 62.8702 0
      vertex 30.8518 62.9299 0
    endloop
  endfacet
  facet normal 0 0 -1
    outer loop
      vertex 30.45 7.1 0
      vertex 30.6548 62.8702 0
      vertex 30.6548 7.07982 0
    endloop
  endfacet
  facet normal 0 0 -1
    outer loop
      vertex 30.45 7.1 0
      vertex 30.45 62.85 0
      vertex 30.6548 62.8702 0
    endloop
  endfacet
  facet normal 0 0 -1
    outer loop
      vertex 30.2452 7.07982 0
      vertex 30.45 62.85 0
      vertex 30.45 7.1 0
    endloop
  endfacet
  facet normal 0 0 -1
    outer loop
      vertex 30.2452 7.07982 0
      vertex 30.2452 62.8702 0
      vertex 30.45 62.85 0
    endloop
  endfacet
  facet normal 0 0 -1
    outer loop
      vertex 30.0482 7.02007 0
      vertex 30.2452 62.8702 0
      vertex 30.2452 7.07982 0
    endloop
  endfacet
  facet normal 0 0 -1
    outer loop
      vertex 30.0482 7.02007 0
      vertex 30.0482 62.9299 0
      vertex 30.2452 62.8702 0
    endloop
  endfacet
  facet normal 0 0 -1
    outer loop
      vertex 8.47304 6.63335 0
      vertex 29.577 6.63335 0
      vertex 8.57007 6.45182 0
    endloop
  endfacet
  facet normal 0 0 -1
    outer loop
      vertex 29.577 6.63335 0
      vertex 8.47304 6.63335 0
      vertex 29.7075 6.79246 0
    endloop
  endfacet
  facet normal 0 0 -1
    outer loop
      vertex 29.4799 6.45182 0
      vertex 8.57007 6.45182 0
      vertex 29.577 6.63335 0
    endloop
  endfacet
  facet normal 0 0 -1
    outer loop
      vertex 8.34246 6.79246 0
      vertex 29.7075 6.79246 0
      vertex 8.47304 6.63335 0
    endloop
  endfacet
  facet normal 0 0 -1
    outer loop
      vertex 8.57007 6.45182 0
      vertex 29.4799 6.45182 0
      vertex 8.62982 6.25484 0
    endloop
  endfacet
  facet normal 0 0 -1
    outer loop
      vertex 30.0482 62.9299 0
      vertex 8.65 63.9 0
      vertex 29.8666 63.027 0
    endloop
  endfacet
  facet normal 0 0 -1
    outer loop
      vertex 29.4202 6.25484 0
      vertex 8.62982 6.25484 0
      vertex 29.4799 6.45182 0
    endloop
  endfacet
  facet normal 0 0 -1
    outer loop
      vertex 29.8666 63.027 0
      vertex 8.65 63.9 0
      vertex 29.7075 63.1575 0
    endloop
  endfacet
  facet normal 0 0 -1
    outer loop
      vertex 8.62982 6.25484 0
      vertex 29.4202 6.25484 0
      vertex 8.65 6.05 0
    endloop
  endfacet
  facet normal 0 0 -1
    outer loop
      vertex 29.7075 63.1575 0
      vertex 8.65 63.9 0
      vertex 29.577 63.3167 0
    endloop
  endfacet
  facet normal 0 0 -1
    outer loop
      vertex 8.65 6.05 0
      vertex 29.4202 6.25484 0
      vertex 29.4 6.05 0
    endloop
  endfacet
  facet normal 0 0 -1
    outer loop
      vertex 29.577 63.3167 0
      vertex 8.65 63.9 0
      vertex 29.4799 63.4982 0
    endloop
  endfacet
  facet normal 0 0 -1
    outer loop
      vertex 31.4798 6.25484 0
      vertex 38 0 0
      vertex 31.5 6.05 0
    endloop
  endfacet
  facet normal 0 0 -1
    outer loop
      vertex 38 0 0
      vertex 31.4798 5.84515 0
      vertex 31.5 6.05 0
    endloop
  endfacet
  facet normal 0 0 -1
    outer loop
      vertex 38 0 0
      vertex 31.4201 5.64818 0
      vertex 31.4798 5.84515 0
    endloop
  endfacet
  facet normal 0 0 -1
    outer loop
      vertex 38 0 0
      vertex 31.323 5.46665 0
      vertex 31.4201 5.64818 0
    endloop
  endfacet
  facet normal 0 0 -1
    outer loop
      vertex 38 0 0
      vertex 31.1925 5.30754 0
      vertex 31.323 5.46665 0
    endloop
  endfacet
  facet normal 0 0 -1
    outer loop
      vertex 38 0 0
      vertex 31.0333 5.17696 0
      vertex 31.1925 5.30754 0
    endloop
  endfacet
  facet normal 0 0 -1
    outer loop
      vertex 38 0 0
      vertex 30.8518 5.07993 0
      vertex 31.0333 5.17696 0
    endloop
  endfacet
  facet normal 0 0 -1
    outer loop
      vertex 38 0 0
      vertex 30.6548 5.02017 0
      vertex 30.8518 5.07993 0
    endloop
  endfacet
  facet normal 0 0 -1
    outer loop
      vertex 38 0 0
      vertex 30.45 5 0
      vertex 30.6548 5.02017 0
    endloop
  endfacet
  facet normal 0 0 -1
    outer loop
      vertex 38 0 0
      vertex 30.2452 5.02017 0
      vertex 30.45 5 0
    endloop
  endfacet
  facet normal 0 0 -1
    outer loop
      vertex 38 0 0
      vertex 30.0482 5.07993 0
      vertex 30.2452 5.02017 0
    endloop
  endfacet
  facet normal 0 0 -1
    outer loop
      vertex 8.00182 5.07993 0
      vertex 30.0482 5.07993 0
      vertex 38 0 0
    endloop
  endfacet
  facet normal 0 0 -1
    outer loop
      vertex 29.4799 63.4982 0
      vertex 8.65 63.9 0
      vertex 29.4202 63.6952 0
    endloop
  endfacet
  facet normal 0 0 -1
    outer loop
      vertex 29.4202 5.84515 0
      vertex 8.65 6.05 0
      vertex 29.4 6.05 0
    endloop
  endfacet
  facet normal 0 0 -1
    outer loop
      vertex 8.62982 5.84515 0
      vertex 29.4202 5.84515 0
      vertex 29.4799 5.64818 0
    endloop
  endfacet
  facet normal 0 0 -1
    outer loop
      vertex 8.57007 5.64818 0
      vertex 29.4799 5.64818 0
      vertex 29.577 5.46665 0
    endloop
  endfacet
  facet normal 0 0 -1
    outer loop
      vertex 8.47304 5.46665 0
      vertex 29.577 5.46665 0
      vertex 29.7075 5.30754 0
    endloop
  endfacet
  facet normal 0 0 -1
    outer loop
      vertex 8.34246 5.30754 0
      vertex 29.7075 5.30754 0
      vertex 29.8666 5.17696 0
    endloop
  endfacet
  facet normal 0 0 -1
    outer loop
      vertex 30.0482 5.07993 0
      vertex 8.00182 5.07993 0
      vertex 29.8666 5.17696 0
    endloop
  endfacet
  facet normal 0 0 -1
    outer loop
      vertex 29.4202 5.84515 0
      vertex 8.62982 5.84515 0
      vertex 8.65 6.05 0
    endloop
  endfacet
  facet normal 0 0 -1
    outer loop
      vertex 29.4799 5.64818 0
      vertex 8.57007 5.64818 0
      vertex 8.62982 5.84515 0
    endloop
  endfacet
  facet normal 0 0 -1
    outer loop
      vertex 29.577 5.46665 0
      vertex 8.47304 5.46665 0
      vertex 8.57007 5.64818 0
    endloop
  endfacet
  facet normal 0 0 -1
    outer loop
      vertex 29.7075 5.30754 0
      vertex 8.34246 5.30754 0
      vertex 8.47304 5.46665 0
    endloop
  endfacet
  facet normal 0 0 -1
    outer loop
      vertex 29.8666 5.17696 0
      vertex 8.18335 5.17696 0
      vertex 8.34246 5.30754 0
    endloop
  endfacet
  facet normal -0 0 -1
    outer loop
      vertex 29.8666 5.17696 0
      vertex 8.00182 5.07993 0
      vertex 8.18335 5.17696 0
    endloop
  endfacet
  facet normal 0 0 -1
    outer loop
      vertex 0 0 0
      vertex 8.00182 5.07993 0
      vertex 38 0 0
    endloop
  endfacet
  facet normal 0 0 -1
    outer loop
      vertex 8.00182 5.07993 0
      vertex 0 0 0
      vertex 7.80484 5.02017 0
    endloop
  endfacet
  facet normal 0 0 -1
    outer loop
      vertex 7.80484 5.02017 0
      vertex 0 0 0
      vertex 7.6 5 0
    endloop
  endfacet
  facet normal 0 0 -1
    outer loop
      vertex 6.62993 63.4982 0
      vertex 0 70 0
      vertex 6.57018 63.6952 0
    endloop
  endfacet
  facet normal -0 0 -1
    outer loop
      vertex 6.57018 5.84515 0
      vertex 0 0 0
      vertex 6.55 6.05 0
    endloop
  endfacet
  facet normal -0 0 -1
    outer loop
      vertex 6.62993 5.64818 0
      vertex 0 0 0
      vertex 6.57018 5.84515 0
    endloop
  endfacet
  facet normal -0 0 -1
    outer loop
      vertex 6.72696 5.46665 0
      vertex 0 0 0
      vertex 6.62993 5.64818 0
    endloop
  endfacet
  facet normal -0 0 -1
    outer loop
      vertex 6.85754 5.30754 0
      vertex 0 0 0
      vertex 6.72696 5.46665 0
    endloop
  endfacet
  facet normal -0 0 -1
    outer loop
      vertex 7.01665 5.17696 0
      vertex 0 0 0
      vertex 6.85754 5.30754 0
    endloop
  endfacet
  facet normal -0 0 -1
    outer loop
      vertex 7.19818 5.07993 0
      vertex 0 0 0
      vertex 7.01665 5.17696 0
    endloop
  endfacet
  facet normal -0 0 -1
    outer loop
      vertex 7.39515 5.02017 0
      vertex 0 0 0
      vertex 7.19818 5.07993 0
    endloop
  endfacet
  facet normal -0 0 -1
    outer loop
      vertex 7.6 5 0
      vertex 0 0 0
      vertex 7.39515 5.02017 0
    endloop
  endfacet
  facet normal 0 0 -1
    outer loop
      vertex 31.4201 6.45182 0
      vertex 38 0 0
      vertex 31.4798 6.25484 0
    endloop
  endfacet
  facet normal 0 0 -1
    outer loop
      vertex 31.4798 64.1048 0
      vertex 38 70 0
      vertex 31.5 63.9 0
    endloop
  endfacet
  facet normal 0 0 -1
    outer loop
      vertex 31.4201 64.3018 0
      vertex 38 70 0
      vertex 31.4798 64.1048 0
    endloop
  endfacet
  facet normal 0 0 -1
    outer loop
      vertex 31.323 64.4833 0
      vertex 38 70 0
      vertex 31.4201 64.3018 0
    endloop
  endfacet
  facet normal 0 0 -1
    outer loop
      vertex 31.1925 64.6425 0
      vertex 38 70 0
      vertex 31.323 64.4833 0
    endloop
  endfacet
  facet normal 0 0 -1
    outer loop
      vertex 31.0333 64.773 0
      vertex 38 70 0
      vertex 31.1925 64.6425 0
    endloop
  endfacet
  facet normal 0 0 -1
    outer loop
      vertex 30.8518 64.8701 0
      vertex 38 70 0
      vertex 31.0333 64.773 0
    endloop
  endfacet
  facet normal 0 0 -1
    outer loop
      vertex 30.6548 64.9298 0
      vertex 38 70 0
      vertex 30.8518 64.8701 0
    endloop
  endfacet
  facet normal 0 0 -1
    outer loop
      vertex 30.45 64.95 0
      vertex 38 70 0
      vertex 30.6548 64.9298 0
    endloop
  endfacet
  facet normal 0 0 -1
    outer loop
      vertex 30.2452 64.9298 0
      vertex 38 70 0
      vertex 30.45 64.95 0
    endloop
  endfacet
  facet normal 0 0 -1
    outer loop
      vertex 30.0482 64.8701 0
      vertex 38 70 0
      vertex 30.2452 64.9298 0
    endloop
  endfacet
  facet normal 0 0 -1
    outer loop
      vertex 8.00182 64.8701 0
      vertex 30.0482 64.8701 0
      vertex 29.8666 64.773 0
    endloop
  endfacet
  facet normal 0 0 -1
    outer loop
      vertex 29.4202 63.6952 0
      vertex 8.65 63.9 0
      vertex 29.4 63.9 0
    endloop
  endfacet
  facet normal 0 0 -1
    outer loop
      vertex 29.4 63.9 0
      vertex 8.65 63.9 0
      vertex 29.4202 64.1048 0
    endloop
  endfacet
  facet normal 0 0 -1
    outer loop
      vertex 8.62982 64.1048 0
      vertex 29.4202 64.1048 0
      vertex 8.65 63.9 0
    endloop
  endfacet
  facet normal 0 0 -1
    outer loop
      vertex 29.4202 64.1048 0
      vertex 8.62982 64.1048 0
      vertex 29.4799 64.3018 0
    endloop
  endfacet
  facet normal 0 0 -1
    outer loop
      vertex 8.57007 64.3018 0
      vertex 29.4799 64.3018 0
      vertex 8.62982 64.1048 0
    endloop
  endfacet
  facet normal 0 0 -1
    outer loop
      vertex 29.4799 64.3018 0
      vertex 8.57007 64.3018 0
      vertex 29.577 64.4833 0
    endloop
  endfacet
  facet normal 0 0 -1
    outer loop
      vertex 8.47304 64.4833 0
      vertex 29.577 64.4833 0
      vertex 8.57007 64.3018 0
    endloop
  endfacet
  facet normal 0 0 -1
    outer loop
      vertex 29.577 64.4833 0
      vertex 8.47304 64.4833 0
      vertex 29.7075 64.6425 0
    endloop
  endfacet
  facet normal 0 0 -1
    outer loop
      vertex 8.34246 64.6425 0
      vertex 29.7075 64.6425 0
      vertex 8.47304 64.4833 0
    endloop
  endfacet
  facet normal 0 0 -1
    outer loop
      vertex 29.7075 64.6425 0
      vertex 8.34246 64.6425 0
      vertex 29.8666 64.773 0
    endloop
  endfacet
  facet normal 0 0 -1
    outer loop
      vertex 8.18335 64.773 0
      vertex 29.8666 64.773 0
      vertex 8.34246 64.6425 0
    endloop
  endfacet
  facet normal 0 0 -1
    outer loop
      vertex 8.00182 64.8701 0
      vertex 29.8666 64.773 0
      vertex 8.18335 64.773 0
    endloop
  endfacet
  facet normal 0 0 -1
    outer loop
      vertex 30.0482 64.8701 0
      vertex 8.00182 64.8701 0
      vertex 38 70 0
    endloop
  endfacet
  facet normal 0 0 -1
    outer loop
      vertex 0 70 0
      vertex 8.00182 64.8701 0
      vertex 7.80484 64.9298 0
    endloop
  endfacet
  facet normal 0 0 -1
    outer loop
      vertex 0 70 0
      vertex 7.80484 64.9298 0
      vertex 7.6 64.95 0
    endloop
  endfacet
  facet normal 0 0 -1
    outer loop
      vertex 0 70 0
      vertex 7.6 64.95 0
      vertex 7.39515 64.9298 0
    endloop
  endfacet
  facet normal 0 0 -1
    outer loop
      vertex 6.57018 63.6952 0
      vertex 0 70 0
      vertex 6.55 63.9 0
    endloop
  endfacet
  facet normal 0 0 -1
    outer loop
      vertex 8.00182 64.8701 0
      vertex 0 70 0
      vertex 38 70 0
    endloop
  endfacet
  facet normal 0 0 -1
    outer loop
      vertex 7.19818 64.8701 0
      vertex 0 70 0
      vertex 7.39515 64.9298 0
    endloop
  endfacet
  facet normal 0 0 -1
    outer loop
      vertex 7.01665 64.773 0
      vertex 0 70 0
      vertex 7.19818 64.8701 0
    endloop
  endfacet
  facet normal 0 0 -1
    outer loop
      vertex 6.85754 64.6425 0
      vertex 0 70 0
      vertex 7.01665 64.773 0
    endloop
  endfacet
  facet normal 0 0 -1
    outer loop
      vertex 6.72696 64.4833 0
      vertex 0 70 0
      vertex 6.85754 64.6425 0
    endloop
  endfacet
  facet normal 0 0 -1
    outer loop
      vertex 6.62993 64.3018 0
      vertex 0 70 0
      vertex 6.72696 64.4833 0
    endloop
  endfacet
  facet normal 0 0 -1
    outer loop
      vertex 6.57018 64.1048 0
      vertex 0 70 0
      vertex 6.62993 64.3018 0
    endloop
  endfacet
  facet normal 0 0 -1
    outer loop
      vertex 6.55 63.9 0
      vertex 0 70 0
      vertex 6.57018 64.1048 0
    endloop
  endfacet
  facet normal -1 0 0
    outer loop
      vertex 0 0 0
      vertex 0 70 3
      vertex 0 70 0
    endloop
  endfacet
  facet normal -1 -0 0
    outer loop
      vertex 0 70 3
      vertex 0 0 0
      vertex 0 0 3
    endloop
  endfacet
  facet normal 0 0 1
    outer loop
      vertex 29.7075 63.1575 3
      vertex 8.34246 63.1575 3
      vertex 29.8666 63.027 3
    endloop
  endfacet
  facet normal 0 0 1
    outer loop
      vertex 30.0482 7.02007 3
      vertex 8.62982 6.25484 3
      vertex 8.65 6.05 3
    endloop
  endfacet
  facet normal 0 0 1
    outer loop
      vertex 8.18335 63.027 3
      vertex 29.8666 63.027 3
      vertex 8.34246 63.1575 3
    endloop
  endfacet
  facet normal 0 0 1
    outer loop
      vertex 30.0482 7.02007 3
      vertex 8.57007 6.45182 3
      vertex 8.62982 6.25484 3
    endloop
  endfacet
  facet normal 0 0 1
    outer loop
      vertex 29.8666 63.027 3
      vertex 8.18335 63.027 3
      vertex 30.0482 62.9299 3
    endloop
  endfacet
  facet normal 0 0 1
    outer loop
      vertex 30.0482 7.02007 3
      vertex 8.47304 6.63335 3
      vertex 8.57007 6.45182 3
    endloop
  endfacet
  facet normal 0 0 1
    outer loop
      vertex 8.00182 62.9299 3
      vertex 30.0482 62.9299 3
      vertex 8.18335 63.027 3
    endloop
  endfacet
  facet normal 0 0 1
    outer loop
      vertex 30.0482 7.02007 3
      vertex 8.34246 6.79246 3
      vertex 8.47304 6.63335 3
    endloop
  endfacet
  facet normal 0 0 1
    outer loop
      vertex 30.0482 62.9299 3
      vertex 8.00182 62.9299 3
      vertex 30.0482 7.02007 3
    endloop
  endfacet
  facet normal 0 0 1
    outer loop
      vertex 30.0482 7.02007 3
      vertex 8.18335 6.92304 3
      vertex 8.34246 6.79246 3
    endloop
  endfacet
  facet normal 0 0 1
    outer loop
      vertex 8.00182 7.02007 3
      vertex 30.0482 7.02007 3
      vertex 8.00182 62.9299 3
    endloop
  endfacet
  facet normal 0 0 1
    outer loop
      vertex 30.0482 7.02007 3
      vertex 8.00182 7.02007 3
      vertex 8.18335 6.92304 3
    endloop
  endfacet
  facet normal -0 0 1
    outer loop
      vertex 7.80484 62.8702 3
      vertex 8.00182 7.02007 3
      vertex 8.00182 62.9299 3
    endloop
  endfacet
  facet normal 0 0 1
    outer loop
      vertex 7.80484 62.8702 3
      vertex 7.80484 7.07982 3
      vertex 8.00182 7.02007 3
    endloop
  endfacet
  facet normal -0 0 1
    outer loop
      vertex 7.6 62.85 3
      vertex 7.80484 7.07982 3
      vertex 7.80484 62.8702 3
    endloop
  endfacet
  facet normal 0 0 1
    outer loop
      vertex 7.6 62.85 3
      vertex 7.6 7.1 3
      vertex 7.80484 7.07982 3
    endloop
  endfacet
  facet normal 0 0 1
    outer loop
      vertex 7.39515 62.8702 3
      vertex 7.6 7.1 3
      vertex 7.6 62.85 3
    endloop
  endfacet
  facet normal 0 0 1
    outer loop
      vertex 7.39515 62.8702 3
      vertex 7.39515 7.07982 3
      vertex 7.6 7.1 3
    endloop
  endfacet
  facet normal 0 0 1
    outer loop
      vertex 7.19818 62.9299 3
      vertex 7.39515 7.07982 3
      vertex 7.39515 62.8702 3
    endloop
  endfacet
  facet normal 0 0 1
    outer loop
      vertex 7.19818 62.9299 3
      vertex 7.19818 7.02007 3
      vertex 7.39515 7.07982 3
    endloop
  endfacet
  facet normal 0 0 1
    outer loop
      vertex 7.01665 63.027 3
      vertex 7.19818 7.02007 3
      vertex 7.19818 62.9299 3
    endloop
  endfacet
  facet normal 0 0 1
    outer loop
      vertex 7.01665 63.027 3
      vertex 7.01665 6.92304 3
      vertex 7.19818 7.02007 3
    endloop
  endfacet
  facet normal 0 0 1
    outer loop
      vertex 6.85754 63.1575 3
      vertex 7.01665 6.92304 3
      vertex 7.01665 63.027 3
    endloop
  endfacet
  facet normal 0 0 1
    outer loop
      vertex 6.85754 63.1575 3
      vertex 6.85754 6.79246 3
      vertex 7.01665 6.92304 3
    endloop
  endfacet
  facet normal 0 0 1
    outer loop
      vertex 6.72696 63.3167 3
      vertex 6.85754 6.79246 3
      vertex 6.85754 63.1575 3
    endloop
  endfacet
  facet normal 0 0 1
    outer loop
      vertex 6.72696 63.3167 3
      vertex 6.72696 6.63335 3
      vertex 6.85754 6.79246 3
    endloop
  endfacet
  facet normal 0 0 1
    outer loop
      vertex 0 70 3
      vertex 6.72696 63.3167 3
      vertex 6.62993 63.4982 3
    endloop
  endfacet
  facet normal 0 0 1
    outer loop
      vertex 6.72696 63.3167 3
      vertex 0 70 3
      vertex 6.72696 6.63335 3
    endloop
  endfacet
  facet normal 0 0 1
    outer loop
      vertex 0 70 3
      vertex 6.62993 63.4982 3
      vertex 6.57018 63.6952 3
    endloop
  endfacet
  facet normal 0 0 1
    outer loop
      vertex 0 0 3
      vertex 6.72696 6.63335 3
      vertex 0 70 3
    endloop
  endfacet
  facet normal 0 0 1
    outer loop
      vertex 0 70 3
      vertex 6.57018 63.6952 3
      vertex 6.55 63.9 3
    endloop
  endfacet
  facet normal 0 0 1
    outer loop
      vertex 6.72696 6.63335 3
      vertex 0 0 3
      vertex 6.62993 6.45182 3
    endloop
  endfacet
  facet normal 0 0 1
    outer loop
      vertex 31.323 63.3167 3
      vertex 38 70 3
      vertex 31.4201 63.4982 3
    endloop
  endfacet
  facet normal 0 0 1
    outer loop
      vertex 38 0 3
      vertex 31.4798 6.25484 3
      vertex 31.5 6.05 3
    endloop
  endfacet
  facet normal 0 0 1
    outer loop
      vertex 38 70 3
      vertex 31.323 63.3167 3
      vertex 38 0 3
    endloop
  endfacet
  facet normal 0 0 1
    outer loop
      vertex 38 0 3
      vertex 31.4201 6.45182 3
      vertex 31.4798 6.25484 3
    endloop
  endfacet
  facet normal -0 0 1
    outer loop
      vertex 31.323 6.63335 3
      vertex 38 0 3
      vertex 31.323 63.3167 3
    endloop
  endfacet
  facet normal 0 0 1
    outer loop
      vertex 38 0 3
      vertex 31.323 6.63335 3
      vertex 31.4201 6.45182 3
    endloop
  endfacet
  facet normal -0 0 1
    outer loop
      vertex 31.1925 63.1575 3
      vertex 31.323 6.63335 3
      vertex 31.323 63.3167 3
    endloop
  endfacet
  facet normal 0 0 1
    outer loop
      vertex 31.1925 63.1575 3
      vertex 31.1925 6.79246 3
      vertex 31.323 6.63335 3
    endloop
  endfacet
  facet normal -0 0 1
    outer loop
      vertex 31.0333 63.027 3
      vertex 31.1925 6.79246 3
      vertex 31.1925 63.1575 3
    endloop
  endfacet
  facet normal 0 0 1
    outer loop
      vertex 31.0333 63.027 3
      vertex 31.0333 6.92304 3
      vertex 31.1925 6.79246 3
    endloop
  endfacet
  facet normal -0 0 1
    outer loop
      vertex 30.8518 62.9299 3
      vertex 31.0333 6.92304 3
      vertex 31.0333 63.027 3
    endloop
  endfacet
  facet normal 0 0 1
    outer loop
      vertex 30.8518 62.9299 3
      vertex 30.8518 7.02007 3
      vertex 31.0333 6.92304 3
    endloop
  endfacet
  facet normal -0 0 1
    outer loop
      vertex 30.6548 62.8702 3
      vertex 30.8518 7.02007 3
      vertex 30.8518 62.9299 3
    endloop
  endfacet
  facet normal 0 0 1
    outer loop
      vertex 30.6548 62.8702 3
      vertex 30.6548 7.07982 3
      vertex 30.8518 7.02007 3
    endloop
  endfacet
  facet normal -0 0 1
    outer loop
      vertex 30.45 62.85 3
      vertex 30.6548 7.07982 3
      vertex 30.6548 62.8702 3
    endloop
  endfacet
  facet normal 0 0 1
    outer loop
      vertex 30.45 62.85 3
      vertex 30.45 7.1 3
      vertex 30.6548 7.07982 3
    endloop
  endfacet
  facet normal 0 0 1
    outer loop
      vertex 30.2452 62.8702 3
      vertex 30.45 7.1 3
      vertex 30.45 62.85 3
    endloop
  endfacet
  facet normal 0 0 1
    outer loop
      vertex 30.2452 62.8702 3
      vertex 30.2452 7.07982 3
      vertex 30.45 7.1 3
    endloop
  endfacet
  facet normal 0 0 1
    outer loop
      vertex 30.0482 62.9299 3
      vertex 30.2452 7.07982 3
      vertex 30.2452 62.8702 3
    endloop
  endfacet
  facet normal 0 0 1
    outer loop
      vertex 30.0482 62.9299 3
      vertex 30.0482 7.02007 3
      vertex 30.2452 7.07982 3
    endloop
  endfacet
  facet normal 0 0 1
    outer loop
      vertex 8.47304 63.3167 3
      vertex 29.577 63.3167 3
      vertex 8.57007 63.4982 3
    endloop
  endfacet
  facet normal 0 0 1
    outer loop
      vertex 29.577 63.3167 3
      vertex 8.47304 63.3167 3
      vertex 29.7075 63.1575 3
    endloop
  endfacet
  facet normal 0 0 1
    outer loop
      vertex 29.4799 63.4982 3
      vertex 8.57007 63.4982 3
      vertex 29.577 63.3167 3
    endloop
  endfacet
  facet normal 0 0 1
    outer loop
      vertex 8.34246 63.1575 3
      vertex 29.7075 63.1575 3
      vertex 8.47304 63.3167 3
    endloop
  endfacet
  facet normal 0 0 1
    outer loop
      vertex 8.57007 63.4982 3
      vertex 29.4799 63.4982 3
      vertex 8.62982 63.6952 3
    endloop
  endfacet
  facet normal 0 0 1
    outer loop
      vertex 30.0482 7.02007 3
      vertex 8.65 6.05 3
      vertex 29.8666 6.92304 3
    endloop
  endfacet
  facet normal 0 0 1
    outer loop
      vertex 29.4202 63.6952 3
      vertex 8.62982 63.6952 3
      vertex 29.4799 63.4982 3
    endloop
  endfacet
  facet normal 0 0 1
    outer loop
      vertex 29.8666 6.92304 3
      vertex 8.65 6.05 3
      vertex 29.7075 6.79246 3
    endloop
  endfacet
  facet normal 0 0 1
    outer loop
      vertex 8.62982 63.6952 3
      vertex 29.4202 63.6952 3
      vertex 8.65 63.9 3
    endloop
  endfacet
  facet normal 0 0 1
    outer loop
      vertex 29.7075 6.79246 3
      vertex 8.65 6.05 3
      vertex 29.577 6.63335 3
    endloop
  endfacet
  facet normal -0 0 1
    outer loop
      vertex 8.65 63.9 3
      vertex 29.4202 63.6952 3
      vertex 29.4 63.9 3
    endloop
  endfacet
  facet normal 0 0 1
    outer loop
      vertex 29.577 6.63335 3
      vertex 8.65 6.05 3
      vertex 29.4799 6.45182 3
    endloop
  endfacet
  facet normal 0 0 1
    outer loop
      vertex 31.4798 63.6952 3
      vertex 38 70 3
      vertex 31.5 63.9 3
    endloop
  endfacet
  facet normal 0 0 1
    outer loop
      vertex 38 70 3
      vertex 31.4798 64.1048 3
      vertex 31.5 63.9 3
    endloop
  endfacet
  facet normal 0 0 1
    outer loop
      vertex 38 70 3
      vertex 31.4201 64.3018 3
      vertex 31.4798 64.1048 3
    endloop
  endfacet
  facet normal 0 0 1
    outer loop
      vertex 38 70 3
      vertex 31.323 64.4833 3
      vertex 31.4201 64.3018 3
    endloop
  endfacet
  facet normal 0 0 1
    outer loop
      vertex 38 70 3
      vertex 31.1925 64.6425 3
      vertex 31.323 64.4833 3
    endloop
  endfacet
  facet normal 0 0 1
    outer loop
      vertex 38 70 3
      vertex 31.0333 64.773 3
      vertex 31.1925 64.6425 3
    endloop
  endfacet
  facet normal 0 0 1
    outer loop
      vertex 38 70 3
      vertex 30.8518 64.8701 3
      vertex 31.0333 64.773 3
    endloop
  endfacet
  facet normal 0 0 1
    outer loop
      vertex 38 70 3
      vertex 30.6548 64.9298 3
      vertex 30.8518 64.8701 3
    endloop
  endfacet
  facet normal 0 0 1
    outer loop
      vertex 38 70 3
      vertex 30.45 64.95 3
      vertex 30.6548 64.9298 3
    endloop
  endfacet
  facet normal 0 0 1
    outer loop
      vertex 38 70 3
      vertex 30.2452 64.9298 3
      vertex 30.45 64.95 3
    endloop
  endfacet
  facet normal 0 0 1
    outer loop
      vertex 38 70 3
      vertex 30.0482 64.8701 3
      vertex 30.2452 64.9298 3
    endloop
  endfacet
  facet normal 0 0 1
    outer loop
      vertex 8.00182 64.8701 3
      vertex 30.0482 64.8701 3
      vertex 38 70 3
    endloop
  endfacet
  facet normal 0 0 1
    outer loop
      vertex 29.4799 6.45182 3
      vertex 8.65 6.05 3
      vertex 29.4202 6.25484 3
    endloop
  endfacet
  facet normal 0 0 1
    outer loop
      vertex 29.4202 64.1048 3
      vertex 8.65 63.9 3
      vertex 29.4 63.9 3
    endloop
  endfacet
  facet normal 0 0 1
    outer loop
      vertex 8.62982 64.1048 3
      vertex 29.4202 64.1048 3
      vertex 29.4799 64.3018 3
    endloop
  endfacet
  facet normal 0 0 1
    outer loop
      vertex 8.57007 64.3018 3
      vertex 29.4799 64.3018 3
      vertex 29.577 64.4833 3
    endloop
  endfacet
  facet normal 0 0 1
    outer loop
      vertex 8.47304 64.4833 3
      vertex 29.577 64.4833 3
      vertex 29.7075 64.6425 3
    endloop
  endfacet
  facet normal 0 0 1
    outer loop
      vertex 8.34246 64.6425 3
      vertex 29.7075 64.6425 3
      vertex 29.8666 64.773 3
    endloop
  endfacet
  facet normal 0 0 1
    outer loop
      vertex 30.0482 64.8701 3
      vertex 8.00182 64.8701 3
      vertex 29.8666 64.773 3
    endloop
  endfacet
  facet normal 0 0 1
    outer loop
      vertex 29.4202 64.1048 3
      vertex 8.62982 64.1048 3
      vertex 8.65 63.9 3
    endloop
  endfacet
  facet normal 0 0 1
    outer loop
      vertex 29.4799 64.3018 3
      vertex 8.57007 64.3018 3
      vertex 8.62982 64.1048 3
    endloop
  endfacet
  facet normal 0 0 1
    outer loop
      vertex 29.577 64.4833 3
      vertex 8.47304 64.4833 3
      vertex 8.57007 64.3018 3
    endloop
  endfacet
  facet normal 0 0 1
    outer loop
      vertex 29.7075 64.6425 3
      vertex 8.34246 64.6425 3
      vertex 8.47304 64.4833 3
    endloop
  endfacet
  facet normal 0 0 1
    outer loop
      vertex 29.8666 64.773 3
      vertex 8.18335 64.773 3
      vertex 8.34246 64.6425 3
    endloop
  endfacet
  facet normal 0 0 1
    outer loop
      vertex 29.8666 64.773 3
      vertex 8.00182 64.8701 3
      vertex 8.18335 64.773 3
    endloop
  endfacet
  facet normal -0 0 1
    outer loop
      vertex 0 70 3
      vertex 8.00182 64.8701 3
      vertex 38 70 3
    endloop
  endfacet
  facet normal 0 0 1
    outer loop
      vertex 8.00182 64.8701 3
      vertex 0 70 3
      vertex 7.80484 64.9298 3
    endloop
  endfacet
  facet normal 0 0 1
    outer loop
      vertex 7.80484 64.9298 3
      vertex 0 70 3
      vertex 7.6 64.95 3
    endloop
  endfacet
  facet normal 0 0 1
    outer loop
      vertex 6.62993 6.45182 3
      vertex 0 0 3
      vertex 6.57018 6.25484 3
    endloop
  endfacet
  facet normal 0 0 1
    outer loop
      vertex 6.57018 64.1048 3
      vertex 0 70 3
      vertex 6.55 63.9 3
    endloop
  endfacet
  facet normal 0 0 1
    outer loop
      vertex 6.62993 64.3018 3
      vertex 0 70 3
      vertex 6.57018 64.1048 3
    endloop
  endfacet
  facet normal 0 0 1
    outer loop
      vertex 6.72696 64.4833 3
      vertex 0 70 3
      vertex 6.62993 64.3018 3
    endloop
  endfacet
  facet normal 0 0 1
    outer loop
      vertex 6.85754 64.6425 3
      vertex 0 70 3
      vertex 6.72696 64.4833 3
    endloop
  endfacet
  facet normal 0 0 1
    outer loop
      vertex 7.01665 64.773 3
      vertex 0 70 3
      vertex 6.85754 64.6425 3
    endloop
  endfacet
  facet normal 0 0 1
    outer loop
      vertex 7.19818 64.8701 3
      vertex 0 70 3
      vertex 7.01665 64.773 3
    endloop
  endfacet
  facet normal 0 0 1
    outer loop
      vertex 7.39515 64.9298 3
      vertex 0 70 3
      vertex 7.19818 64.8701 3
    endloop
  endfacet
  facet normal 0 0 1
    outer loop
      vertex 7.6 64.95 3
      vertex 0 70 3
      vertex 7.39515 64.9298 3
    endloop
  endfacet
  facet normal 0 0 1
    outer loop
      vertex 31.4201 63.4982 3
      vertex 38 70 3
      vertex 31.4798 63.6952 3
    endloop
  endfacet
  facet normal -0 0 1
    outer loop
      vertex 31.4798 5.84515 3
      vertex 38 0 3
      vertex 31.5 6.05 3
    endloop
  endfacet
  facet normal -0 0 1
    outer loop
      vertex 31.4201 5.64818 3
      vertex 38 0 3
      vertex 31.4798 5.84515 3
    endloop
  endfacet
  facet normal -0 0 1
    outer loop
      vertex 31.323 5.46665 3
      vertex 38 0 3
      vertex 31.4201 5.64818 3
    endloop
  endfacet
  facet normal -0 0 1
    outer loop
      vertex 31.1925 5.30754 3
      vertex 38 0 3
      vertex 31.323 5.46665 3
    endloop
  endfacet
  facet normal -0 0 1
    outer loop
      vertex 31.0333 5.17696 3
      vertex 38 0 3
      vertex 31.1925 5.30754 3
    endloop
  endfacet
  facet normal -0 0 1
    outer loop
      vertex 30.8518 5.07993 3
      vertex 38 0 3
      vertex 31.0333 5.17696 3
    endloop
  endfacet
  facet normal -0 0 1
    outer loop
      vertex 30.6548 5.02017 3
      vertex 38 0 3
      vertex 30.8518 5.07993 3
    endloop
  endfacet
  facet normal -0 0 1
    outer loop
      vertex 30.45 5 3
      vertex 38 0 3
      vertex 30.6548 5.02017 3
    endloop
  endfacet
  facet normal 0 0 1
    outer loop
      vertex 30.2452 5.02017 3
      vertex 38 0 3
      vertex 30.45 5 3
    endloop
  endfacet
  facet normal 0 0 1
    outer loop
      vertex 30.0482 5.07993 3
      vertex 38 0 3
      vertex 30.2452 5.02017 3
    endloop
  endfacet
  facet normal 0 0 1
    outer loop
      vertex 8.00182 5.07993 3
      vertex 30.0482 5.07993 3
      vertex 29.8666 5.17696 3
    endloop
  endfacet
  facet normal 0 0 1
    outer loop
      vertex 29.4202 6.25484 3
      vertex 8.65 6.05 3
      vertex 29.4 6.05 3
    endloop
  endfacet
  facet normal 0 0 1
    outer loop
      vertex 29.4 6.05 3
      vertex 8.65 6.05 3
      vertex 29.4202 5.84515 3
    endloop
  endfacet
  facet normal 0 0 1
    outer loop
      vertex 8.62982 5.84515 3
      vertex 29.4202 5.84515 3
      vertex 8.65 6.05 3
    endloop
  endfacet
  facet normal 0 0 1
    outer loop
      vertex 29.4202 5.84515 3
      vertex 8.62982 5.84515 3
      vertex 29.4799 5.64818 3
    endloop
  endfacet
  facet normal 0 0 1
    outer loop
      vertex 8.57007 5.64818 3
      vertex 29.4799 5.64818 3
      vertex 8.62982 5.84515 3
    endloop
  endfacet
  facet normal 0 0 1
    outer loop
      vertex 29.4799 5.64818 3
      vertex 8.57007 5.64818 3
      vertex 29.577 5.46665 3
    endloop
  endfacet
  facet normal 0 0 1
    outer loop
      vertex 8.47304 5.46665 3
      vertex 29.577 5.46665 3
      vertex 8.57007 5.64818 3
    endloop
  endfacet
  facet normal 0 0 1
    outer loop
      vertex 29.577 5.46665 3
      vertex 8.47304 5.46665 3
      vertex 29.7075 5.30754 3
    endloop
  endfacet
  facet normal 0 0 1
    outer loop
      vertex 8.34246 5.30754 3
      vertex 29.7075 5.30754 3
      vertex 8.47304 5.46665 3
    endloop
  endfacet
  facet normal 0 0 1
    outer loop
      vertex 29.7075 5.30754 3
      vertex 8.34246 5.30754 3
      vertex 29.8666 5.17696 3
    endloop
  endfacet
  facet normal 0 0 1
    outer loop
      vertex 8.18335 5.17696 3
      vertex 29.8666 5.17696 3
      vertex 8.34246 5.30754 3
    endloop
  endfacet
  facet normal 0 0 1
    outer loop
      vertex 8.00182 5.07993 3
      vertex 29.8666 5.17696 3
      vertex 8.18335 5.17696 3
    endloop
  endfacet
  facet normal 0 0 1
    outer loop
      vertex 30.0482 5.07993 3
      vertex 8.00182 5.07993 3
      vertex 38 0 3
    endloop
  endfacet
  facet normal 0 0 1
    outer loop
      vertex 0 0 3
      vertex 8.00182 5.07993 3
      vertex 7.80484 5.02017 3
    endloop
  endfacet
  facet normal 0 0 1
    outer loop
      vertex 0 0 3
      vertex 7.80484 5.02017 3
      vertex 7.6 5 3
    endloop
  endfacet
  facet normal 0 0 1
    outer loop
      vertex 0 0 3
      vertex 7.6 5 3
      vertex 7.39515 5.02017 3
    endloop
  endfacet
  facet normal 0 0 1
    outer loop
      vertex 6.57018 6.25484 3
      vertex 0 0 3
      vertex 6.55 6.05 3
    endloop
  endfacet
  facet normal 0 0 1
    outer loop
      vertex 8.00182 5.07993 3
      vertex 0 0 3
      vertex 38 0 3
    endloop
  endfacet
  facet normal 0 0 1
    outer loop
      vertex 7.19818 5.07993 3
      vertex 0 0 3
      vertex 7.39515 5.02017 3
    endloop
  endfacet
  facet normal 0 0 1
    outer loop
      vertex 7.01665 5.17696 3
      vertex 0 0 3
      vertex 7.19818 5.07993 3
    endloop
  endfacet
  facet normal 0 0 1
    outer loop
      vertex 6.85754 5.30754 3
      vertex 0 0 3
      vertex 7.01665 5.17696 3
    endloop
  endfacet
  facet normal 0 0 1
    outer loop
      vertex 6.72696 5.46665 3
      vertex 0 0 3
      vertex 6.85754 5.30754 3
    endloop
  endfacet
  facet normal 0 0 1
    outer loop
      vertex 6.62993 5.64818 3
      vertex 0 0 3
      vertex 6.72696 5.46665 3
    endloop
  endfacet
  facet normal 0 0 1
    outer loop
      vertex 6.57018 5.84515 3
      vertex 0 0 3
      vertex 6.62993 5.64818 3
    endloop
  endfacet
  facet normal 0 0 1
    outer loop
      vertex 6.55 6.05 3
      vertex 0 0 3
      vertex 6.57018 5.84515 3
    endloop
  endfacet
  facet normal 0 1 -0
    outer loop
      vertex 38 70 0
      vertex 0 70 3
      vertex 38 70 3
    endloop
  endfacet
  facet normal 0 1 0
    outer loop
      vertex 0 70 3
      vertex 38 70 0
      vertex 0 70 0
    endloop
  endfacet
  facet normal 1 -0 0
    outer loop
      vertex 38 0 3
      vertex 38 70 0
      vertex 38 70 3
    endloop
  endfacet
  facet normal 1 0 0
    outer loop
      vertex 38 70 0
      vertex 38 0 3
      vertex 38 0 0
    endloop
  endfacet
  facet normal 0 -1 0
    outer loop
      vertex 0 0 0
      vertex 38 0 3
      vertex 0 0 3
    endloop
  endfacet
  facet normal 0 -1 -0
    outer loop
      vertex 38 0 3
      vertex 0 0 0
      vertex 38 0 0
    endloop
  endfacet
  facet normal 0.956941 0.290284 0
    outer loop
      vertex 6.62993 5.64818 3
      vertex 6.57018 5.84515 0
      vertex 6.57018 5.84515 3
    endloop
  endfacet
  facet normal 0.956941 0.290284 0
    outer loop
      vertex 6.57018 5.84515 0
      vertex 6.62993 5.64818 3
      vertex 6.62993 5.64818 0
    endloop
  endfacet
  facet normal 0.995183 0.0980366 0
    outer loop
      vertex 6.57018 5.84515 3
      vertex 6.55 6.05 0
      vertex 6.55 6.05 3
    endloop
  endfacet
  facet normal 0.995183 0.0980366 0
    outer loop
      vertex 6.55 6.05 0
      vertex 6.57018 5.84515 3
      vertex 6.57018 5.84515 0
    endloop
  endfacet
  facet normal -0.634399 -0.773006 0
    outer loop
      vertex 8.18335 6.92304 0
      vertex 8.34246 6.79246 3
      vertex 8.18335 6.92304 3
    endloop
  endfacet
  facet normal -0.634399 -0.773006 -0
    outer loop
      vertex 8.34246 6.79246 3
      vertex 8.18335 6.92304 0
      vertex 8.34246 6.79246 0
    endloop
  endfacet
  facet normal 0.773006 -0.634399 0
    outer loop
      vertex 6.72696 6.63335 3
      vertex 6.85754 6.79246 0
      vertex 6.85754 6.79246 3
    endloop
  endfacet
  facet normal 0.773006 -0.634399 0
    outer loop
      vertex 6.85754 6.79246 0
      vertex 6.72696 6.63335 3
      vertex 6.72696 6.63335 0
    endloop
  endfacet
  facet normal -0.995183 0.0980366 0
    outer loop
      vertex 8.62982 5.84515 0
      vertex 8.65 6.05 3
      vertex 8.65 6.05 0
    endloop
  endfacet
  facet normal -0.995183 0.0980366 0
    outer loop
      vertex 8.65 6.05 3
      vertex 8.62982 5.84515 0
      vertex 8.62982 5.84515 3
    endloop
  endfacet
  facet normal 0.995182 -0.0980413 0
    outer loop
      vertex 6.55 6.05 3
      vertex 6.57018 6.25484 0
      vertex 6.57018 6.25484 3
    endloop
  endfacet
  facet normal 0.995182 -0.0980413 0
    outer loop
      vertex 6.57018 6.25484 0
      vertex 6.55 6.05 3
      vertex 6.55 6.05 0
    endloop
  endfacet
  facet normal -0.881921 -0.471397 0
    outer loop
      vertex 8.57007 6.45182 0
      vertex 8.47304 6.63335 3
      vertex 8.47304 6.63335 0
    endloop
  endfacet
  facet normal -0.881921 -0.471397 0
    outer loop
      vertex 8.47304 6.63335 3
      vertex 8.57007 6.45182 0
      vertex 8.57007 6.45182 3
    endloop
  endfacet
  facet normal -0.881921 0.471397 0
    outer loop
      vertex 8.47304 5.46665 0
      vertex 8.57007 5.64818 3
      vertex 8.57007 5.64818 0
    endloop
  endfacet
  facet normal -0.881921 0.471397 0
    outer loop
      vertex 8.57007 5.64818 3
      vertex 8.47304 5.46665 0
      vertex 8.47304 5.46665 3
    endloop
  endfacet
  facet normal -0.995182 -0.0980413 0
    outer loop
      vertex 8.65 6.05 0
      vertex 8.62982 6.25484 3
      vertex 8.62982 6.25484 0
    endloop
  endfacet
  facet normal -0.995182 -0.0980413 0
    outer loop
      vertex 8.62982 6.25484 3
      vertex 8.65 6.05 0
      vertex 8.65 6.05 3
    endloop
  endfacet
  facet normal 0.290284 -0.956941 0
    outer loop
      vertex 7.19818 7.02007 0
      vertex 7.39515 7.07982 3
      vertex 7.19818 7.02007 3
    endloop
  endfacet
  facet normal 0.290284 -0.956941 0
    outer loop
      vertex 7.39515 7.07982 3
      vertex 7.19818 7.02007 0
      vertex 7.39515 7.07982 0
    endloop
  endfacet
  facet normal -0.956945 -0.29027 0
    outer loop
      vertex 8.62982 6.25484 0
      vertex 8.57007 6.45182 3
      vertex 8.57007 6.45182 0
    endloop
  endfacet
  facet normal -0.956945 -0.29027 0
    outer loop
      vertex 8.57007 6.45182 3
      vertex 8.62982 6.25484 0
      vertex 8.62982 6.25484 3
    endloop
  endfacet
  facet normal 0.290328 0.956927 -0
    outer loop
      vertex 7.39515 5.02017 0
      vertex 7.19818 5.07993 3
      vertex 7.39515 5.02017 3
    endloop
  endfacet
  facet normal 0.290328 0.956927 0
    outer loop
      vertex 7.19818 5.07993 3
      vertex 7.39515 5.02017 0
      vertex 7.19818 5.07993 0
    endloop
  endfacet
  facet normal -0.29027 -0.956945 0
    outer loop
      vertex 7.80484 7.07982 0
      vertex 8.00182 7.02007 3
      vertex 7.80484 7.07982 3
    endloop
  endfacet
  facet normal -0.29027 -0.956945 -0
    outer loop
      vertex 8.00182 7.02007 3
      vertex 7.80484 7.07982 0
      vertex 8.00182 7.02007 0
    endloop
  endfacet
  facet normal 0.881921 -0.471397 0
    outer loop
      vertex 6.62993 6.45182 3
      vertex 6.72696 6.63335 0
      vertex 6.72696 6.63335 3
    endloop
  endfacet
  facet normal 0.881921 -0.471397 0
    outer loop
      vertex 6.72696 6.63335 0
      vertex 6.62993 6.45182 3
      vertex 6.62993 6.45182 0
    endloop
  endfacet
  facet normal 0.0980366 -0.995183 0
    outer loop
      vertex 7.39515 7.07982 0
      vertex 7.6 7.1 3
      vertex 7.39515 7.07982 3
    endloop
  endfacet
  facet normal 0.0980366 -0.995183 0
    outer loop
      vertex 7.6 7.1 3
      vertex 7.39515 7.07982 0
      vertex 7.6 7.1 0
    endloop
  endfacet
  facet normal -0.634399 0.773006 0
    outer loop
      vertex 8.34246 5.30754 0
      vertex 8.18335 5.17696 3
      vertex 8.34246 5.30754 3
    endloop
  endfacet
  facet normal -0.634399 0.773006 0
    outer loop
      vertex 8.18335 5.17696 3
      vertex 8.34246 5.30754 0
      vertex 8.18335 5.17696 0
    endloop
  endfacet
  facet normal -0.471397 0.881921 0
    outer loop
      vertex 8.18335 5.17696 0
      vertex 8.00182 5.07993 3
      vertex 8.18335 5.17696 3
    endloop
  endfacet
  facet normal -0.471397 0.881921 0
    outer loop
      vertex 8.00182 5.07993 3
      vertex 8.18335 5.17696 0
      vertex 8.00182 5.07993 0
    endloop
  endfacet
  facet normal 0.956945 -0.29027 0
    outer loop
      vertex 6.57018 6.25484 3
      vertex 6.62993 6.45182 0
      vertex 6.62993 6.45182 3
    endloop
  endfacet
  facet normal 0.956945 -0.29027 0
    outer loop
      vertex 6.62993 6.45182 0
      vertex 6.57018 6.25484 3
      vertex 6.57018 6.25484 0
    endloop
  endfacet
  facet normal -0.773006 -0.634399 0
    outer loop
      vertex 8.47304 6.63335 0
      vertex 8.34246 6.79246 3
      vertex 8.34246 6.79246 0
    endloop
  endfacet
  facet normal -0.773006 -0.634399 0
    outer loop
      vertex 8.34246 6.79246 3
      vertex 8.47304 6.63335 0
      vertex 8.47304 6.63335 3
    endloop
  endfacet
  facet normal -0.471397 -0.881921 0
    outer loop
      vertex 8.00182 7.02007 0
      vertex 8.18335 6.92304 3
      vertex 8.00182 7.02007 3
    endloop
  endfacet
  facet normal -0.471397 -0.881921 -0
    outer loop
      vertex 8.18335 6.92304 3
      vertex 8.00182 7.02007 0
      vertex 8.18335 6.92304 0
    endloop
  endfacet
  facet normal -0.773006 0.634399 0
    outer loop
      vertex 8.34246 5.30754 0
      vertex 8.47304 5.46665 3
      vertex 8.47304 5.46665 0
    endloop
  endfacet
  facet normal -0.773006 0.634399 0
    outer loop
      vertex 8.47304 5.46665 3
      vertex 8.34246 5.30754 0
      vertex 8.34246 5.30754 3
    endloop
  endfacet
  facet normal -0.0979932 0.995187 0
    outer loop
      vertex 7.80484 5.02017 0
      vertex 7.6 5 3
      vertex 7.80484 5.02017 3
    endloop
  endfacet
  facet normal -0.0979932 0.995187 0
    outer loop
      vertex 7.6 5 3
      vertex 7.80484 5.02017 0
      vertex 7.6 5 0
    endloop
  endfacet
  facet normal 0.634399 -0.773006 0
    outer loop
      vertex 6.85754 6.79246 0
      vertex 7.01665 6.92304 3
      vertex 6.85754 6.79246 3
    endloop
  endfacet
  facet normal 0.634399 -0.773006 0
    outer loop
      vertex 7.01665 6.92304 3
      vertex 6.85754 6.79246 0
      vertex 7.01665 6.92304 0
    endloop
  endfacet
  facet normal 0.471397 -0.881921 0
    outer loop
      vertex 7.01665 6.92304 0
      vertex 7.19818 7.02007 3
      vertex 7.01665 6.92304 3
    endloop
  endfacet
  facet normal 0.471397 -0.881921 0
    outer loop
      vertex 7.19818 7.02007 3
      vertex 7.01665 6.92304 0
      vertex 7.19818 7.02007 0
    endloop
  endfacet
  facet normal 0.881921 0.471397 0
    outer loop
      vertex 6.72696 5.46665 3
      vertex 6.62993 5.64818 0
      vertex 6.62993 5.64818 3
    endloop
  endfacet
  facet normal 0.881921 0.471397 0
    outer loop
      vertex 6.62993 5.64818 0
      vertex 6.72696 5.46665 3
      vertex 6.72696 5.46665 0
    endloop
  endfacet
  facet normal 0.773006 0.634399 0
    outer loop
      vertex 6.85754 5.30754 3
      vertex 6.72696 5.46665 0
      vertex 6.72696 5.46665 3
    endloop
  endfacet
  facet normal 0.773006 0.634399 0
    outer loop
      vertex 6.72696 5.46665 0
      vertex 6.85754 5.30754 3
      vertex 6.85754 5.30754 0
    endloop
  endfacet
  facet normal -0.956941 0.290284 0
    outer loop
      vertex 8.57007 5.64818 0
      vertex 8.62982 5.84515 3
      vertex 8.62982 5.84515 0
    endloop
  endfacet
  facet normal -0.956941 0.290284 0
    outer loop
      vertex 8.62982 5.84515 3
      vertex 8.57007 5.64818 0
      vertex 8.57007 5.64818 3
    endloop
  endfacet
  facet normal -0.290315 0.956931 0
    outer loop
      vertex 8.00182 5.07993 0
      vertex 7.80484 5.02017 3
      vertex 8.00182 5.07993 3
    endloop
  endfacet
  facet normal -0.290315 0.956931 0
    outer loop
      vertex 7.80484 5.02017 3
      vertex 8.00182 5.07993 0
      vertex 7.80484 5.02017 0
    endloop
  endfacet
  facet normal -0.0980413 -0.995182 0
    outer loop
      vertex 7.6 7.1 0
      vertex 7.80484 7.07982 3
      vertex 7.6 7.1 3
    endloop
  endfacet
  facet normal -0.0980413 -0.995182 -0
    outer loop
      vertex 7.80484 7.07982 3
      vertex 7.6 7.1 0
      vertex 7.80484 7.07982 0
    endloop
  endfacet
  facet normal 0.634399 0.773006 -0
    outer loop
      vertex 7.01665 5.17696 0
      vertex 6.85754 5.30754 3
      vertex 7.01665 5.17696 3
    endloop
  endfacet
  facet normal 0.634399 0.773006 0
    outer loop
      vertex 6.85754 5.30754 3
      vertex 7.01665 5.17696 0
      vertex 6.85754 5.30754 0
    endloop
  endfacet
  facet normal 0.0979884 0.995188 -0
    outer loop
      vertex 7.6 5 0
      vertex 7.39515 5.02017 3
      vertex 7.6 5 3
    endloop
  endfacet
  facet normal 0.0979884 0.995188 0
    outer loop
      vertex 7.39515 5.02017 3
      vertex 7.6 5 0
      vertex 7.39515 5.02017 0
    endloop
  endfacet
  facet normal 0.471397 0.881921 -0
    outer loop
      vertex 7.19818 5.07993 0
      vertex 7.01665 5.17696 3
      vertex 7.19818 5.07993 3
    endloop
  endfacet
  facet normal 0.471397 0.881921 0
    outer loop
      vertex 7.01665 5.17696 3
      vertex 7.19818 5.07993 0
      vertex 7.01665 5.17696 0
    endloop
  endfacet
  facet normal -0.290288 0.956939 0
    outer loop
      vertex 30.8518 5.07993 0
      vertex 30.6548 5.02017 3
      vertex 30.8518 5.07993 3
    endloop
  endfacet
  facet normal -0.290288 0.956939 0
    outer loop
      vertex 30.6548 5.02017 3
      vertex 30.8518 5.07993 0
      vertex 30.6548 5.02017 0
    endloop
  endfacet
  facet normal -0.957012 -0.290048 0
    outer loop
      vertex 31.4798 6.25484 0
      vertex 31.4201 6.45182 3
      vertex 31.4201 6.45182 0
    endloop
  endfacet
  facet normal -0.957012 -0.290048 0
    outer loop
      vertex 31.4201 6.45182 3
      vertex 31.4798 6.25484 0
      vertex 31.4798 6.25484 3
    endloop
  endfacet
  facet normal -0.995173 -0.0981375 0
    outer loop
      vertex 31.5 6.05 0
      vertex 31.4798 6.25484 3
      vertex 31.4798 6.25484 0
    endloop
  endfacet
  facet normal -0.995173 -0.0981375 0
    outer loop
      vertex 31.4798 6.25484 3
      vertex 31.5 6.05 0
      vertex 31.5 6.05 3
    endloop
  endfacet
  facet normal -0.881779 -0.471662 0
    outer loop
      vertex 31.4201 6.45182 0
      vertex 31.323 6.63335 3
      vertex 31.323 6.63335 0
    endloop
  endfacet
  facet normal -0.881779 -0.471662 0
    outer loop
      vertex 31.323 6.63335 3
      vertex 31.4201 6.45182 0
      vertex 31.4201 6.45182 3
    endloop
  endfacet
  facet normal 0.290243 -0.956953 0
    outer loop
      vertex 30.0482 7.02007 0
      vertex 30.2452 7.07982 3
      vertex 30.0482 7.02007 3
    endloop
  endfacet
  facet normal 0.290243 -0.956953 0
    outer loop
      vertex 30.2452 7.07982 3
      vertex 30.0482 7.02007 0
      vertex 30.2452 7.07982 0
    endloop
  endfacet
  facet normal 0.881779 -0.471662 0
    outer loop
      vertex 29.4799 6.45182 3
      vertex 29.577 6.63335 0
      vertex 29.577 6.63335 3
    endloop
  endfacet
  facet normal 0.881779 -0.471662 0
    outer loop
      vertex 29.577 6.63335 0
      vertex 29.4799 6.45182 3
      vertex 29.4799 6.45182 0
    endloop
  endfacet
  facet normal 0.995173 0.0981328 0
    outer loop
      vertex 29.4202 5.84515 3
      vertex 29.4 6.05 0
      vertex 29.4 6.05 3
    endloop
  endfacet
  facet normal 0.995173 0.0981328 0
    outer loop
      vertex 29.4 6.05 0
      vertex 29.4202 5.84515 3
      vertex 29.4202 5.84515 0
    endloop
  endfacet
  facet normal 0.0980121 0.995185 -0
    outer loop
      vertex 30.45 5 0
      vertex 30.2452 5.02017 3
      vertex 30.45 5 3
    endloop
  endfacet
  facet normal 0.0980121 0.995185 0
    outer loop
      vertex 30.2452 5.02017 3
      vertex 30.45 5 0
      vertex 30.2452 5.02017 0
    endloop
  endfacet
  facet normal 0.634422 0.772987 -0
    outer loop
      vertex 29.8666 5.17696 0
      vertex 29.7075 5.30754 3
      vertex 29.8666 5.17696 3
    endloop
  endfacet
  facet normal 0.634422 0.772987 0
    outer loop
      vertex 29.7075 5.30754 3
      vertex 29.8666 5.17696 0
      vertex 29.7075 5.30754 0
    endloop
  endfacet
  facet normal -0.773197 0.634166 0
    outer loop
      vertex 31.1925 5.30754 0
      vertex 31.323 5.46665 3
      vertex 31.323 5.46665 0
    endloop
  endfacet
  facet normal -0.773197 0.634166 0
    outer loop
      vertex 31.323 5.46665 3
      vertex 31.1925 5.30754 0
      vertex 31.1925 5.30754 3
    endloop
  endfacet
  facet normal -0.471458 0.881888 0
    outer loop
      vertex 31.0333 5.17696 0
      vertex 30.8518 5.07993 3
      vertex 31.0333 5.17696 3
    endloop
  endfacet
  facet normal -0.471458 0.881888 0
    outer loop
      vertex 30.8518 5.07993 3
      vertex 31.0333 5.17696 0
      vertex 30.8518 5.07993 0
    endloop
  endfacet
  facet normal -0.773197 -0.634166 0
    outer loop
      vertex 31.323 6.63335 0
      vertex 31.1925 6.79246 3
      vertex 31.1925 6.79246 0
    endloop
  endfacet
  facet normal -0.773197 -0.634166 0
    outer loop
      vertex 31.1925 6.79246 3
      vertex 31.323 6.63335 0
      vertex 31.323 6.63335 3
    endloop
  endfacet
  facet normal 0.471256 0.881996 -0
    outer loop
      vertex 30.0482 5.07993 0
      vertex 29.8666 5.17696 3
      vertex 30.0482 5.07993 3
    endloop
  endfacet
  facet normal 0.471256 0.881996 0
    outer loop
      vertex 29.8666 5.17696 3
      vertex 30.0482 5.07993 0
      vertex 29.8666 5.17696 0
    endloop
  endfacet
  facet normal -0.995173 0.0981328 0
    outer loop
      vertex 31.4798 5.84515 0
      vertex 31.5 6.05 3
      vertex 31.5 6.05 0
    endloop
  endfacet
  facet normal -0.995173 0.0981328 0
    outer loop
      vertex 31.5 6.05 3
      vertex 31.4798 5.84515 0
      vertex 31.4798 5.84515 3
    endloop
  endfacet
  facet normal -0.957008 0.290061 0
    outer loop
      vertex 31.4201 5.64818 0
      vertex 31.4798 5.84515 3
      vertex 31.4798 5.84515 0
    endloop
  endfacet
  facet normal -0.957008 0.290061 0
    outer loop
      vertex 31.4798 5.84515 3
      vertex 31.4201 5.64818 0
      vertex 31.4201 5.64818 3
    endloop
  endfacet
  facet normal -0.881779 0.471662 0
    outer loop
      vertex 31.323 5.46665 0
      vertex 31.4201 5.64818 3
      vertex 31.4201 5.64818 0
    endloop
  endfacet
  facet normal -0.881779 0.471662 0
    outer loop
      vertex 31.4201 5.64818 3
      vertex 31.323 5.46665 0
      vertex 31.323 5.46665 3
    endloop
  endfacet
  facet normal 0.634422 -0.772987 0
    outer loop
      vertex 29.7075 6.79246 0
      vertex 29.8666 6.92304 3
      vertex 29.7075 6.79246 3
    endloop
  endfacet
  facet normal 0.634422 -0.772987 0
    outer loop
      vertex 29.8666 6.92304 3
      vertex 29.7075 6.79246 0
      vertex 29.8666 6.92304 0
    endloop
  endfacet
  facet normal 0.995173 -0.0981375 0
    outer loop
      vertex 29.4 6.05 3
      vertex 29.4202 6.25484 0
      vertex 29.4202 6.25484 3
    endloop
  endfacet
  facet normal 0.995173 -0.0981375 0
    outer loop
      vertex 29.4202 6.25484 0
      vertex 29.4 6.05 3
      vertex 29.4 6.05 0
    endloop
  endfacet
  facet normal 0.957008 0.290061 0
    outer loop
      vertex 29.4799 5.64818 3
      vertex 29.4202 5.84515 0
      vertex 29.4202 5.84515 3
    endloop
  endfacet
  facet normal 0.957008 0.290061 0
    outer loop
      vertex 29.4202 5.84515 0
      vertex 29.4799 5.64818 3
      vertex 29.4799 5.64818 0
    endloop
  endfacet
  facet normal -0.0980121 0.995185 0
    outer loop
      vertex 30.6548 5.02017 0
      vertex 30.45 5 3
      vertex 30.6548 5.02017 3
    endloop
  endfacet
  facet normal -0.0980121 0.995185 0
    outer loop
      vertex 30.45 5 3
      vertex 30.6548 5.02017 0
      vertex 30.45 5 0
    endloop
  endfacet
  facet normal -0.290243 -0.956953 0
    outer loop
      vertex 30.6548 7.07982 0
      vertex 30.8518 7.02007 3
      vertex 30.6548 7.07982 3
    endloop
  endfacet
  facet normal -0.290243 -0.956953 -0
    outer loop
      vertex 30.8518 7.02007 3
      vertex 30.6548 7.07982 0
      vertex 30.8518 7.02007 0
    endloop
  endfacet
  facet normal -0.0980603 -0.99518 0
    outer loop
      vertex 30.45 7.1 0
      vertex 30.6548 7.07982 3
      vertex 30.45 7.1 3
    endloop
  endfacet
  facet normal -0.0980603 -0.99518 -0
    outer loop
      vertex 30.6548 7.07982 3
      vertex 30.45 7.1 0
      vertex 30.6548 7.07982 0
    endloop
  endfacet
  facet normal 0.290288 0.956939 -0
    outer loop
      vertex 30.2452 5.02017 0
      vertex 30.0482 5.07993 3
      vertex 30.2452 5.02017 3
    endloop
  endfacet
  facet normal 0.290288 0.956939 0
    outer loop
      vertex 30.0482 5.07993 3
      vertex 30.2452 5.02017 0
      vertex 30.0482 5.07993 0
    endloop
  endfacet
  facet normal -0.634184 -0.773182 0
    outer loop
      vertex 31.0333 6.92304 0
      vertex 31.1925 6.79246 3
      vertex 31.0333 6.92304 3
    endloop
  endfacet
  facet normal -0.634184 -0.773182 -0
    outer loop
      vertex 31.1925 6.79246 3
      vertex 31.0333 6.92304 0
      vertex 31.1925 6.79246 0
    endloop
  endfacet
  facet normal 0.773197 -0.634166 0
    outer loop
      vertex 29.577 6.63335 3
      vertex 29.7075 6.79246 0
      vertex 29.7075 6.79246 3
    endloop
  endfacet
  facet normal 0.773197 -0.634166 0
    outer loop
      vertex 29.7075 6.79246 0
      vertex 29.577 6.63335 3
      vertex 29.577 6.63335 0
    endloop
  endfacet
  facet normal -0.471458 -0.881888 0
    outer loop
      vertex 30.8518 7.02007 0
      vertex 31.0333 6.92304 3
      vertex 30.8518 7.02007 3
    endloop
  endfacet
  facet normal -0.471458 -0.881888 -0
    outer loop
      vertex 31.0333 6.92304 3
      vertex 30.8518 7.02007 0
      vertex 31.0333 6.92304 0
    endloop
  endfacet
  facet normal 0.471256 -0.881996 0
    outer loop
      vertex 29.8666 6.92304 0
      vertex 30.0482 7.02007 3
      vertex 29.8666 6.92304 3
    endloop
  endfacet
  facet normal 0.471256 -0.881996 0
    outer loop
      vertex 30.0482 7.02007 3
      vertex 29.8666 6.92304 0
      vertex 30.0482 7.02007 0
    endloop
  endfacet
  facet normal 0.0980603 -0.99518 0
    outer loop
      vertex 30.2452 7.07982 0
      vertex 30.45 7.1 3
      vertex 30.2452 7.07982 3
    endloop
  endfacet
  facet normal 0.0980603 -0.99518 0
    outer loop
      vertex 30.45 7.1 3
      vertex 30.2452 7.07982 0
      vertex 30.45 7.1 0
    endloop
  endfacet
  facet normal -0.634184 0.773182 0
    outer loop
      vertex 31.1925 5.30754 0
      vertex 31.0333 5.17696 3
      vertex 31.1925 5.30754 3
    endloop
  endfacet
  facet normal -0.634184 0.773182 0
    outer loop
      vertex 31.0333 5.17696 3
      vertex 31.1925 5.30754 0
      vertex 31.0333 5.17696 0
    endloop
  endfacet
  facet normal 0.773197 0.634166 0
    outer loop
      vertex 29.7075 5.30754 3
      vertex 29.577 5.46665 0
      vertex 29.577 5.46665 3
    endloop
  endfacet
  facet normal 0.773197 0.634166 0
    outer loop
      vertex 29.577 5.46665 0
      vertex 29.7075 5.30754 3
      vertex 29.7075 5.30754 0
    endloop
  endfacet
  facet normal 0.881779 0.471662 0
    outer loop
      vertex 29.577 5.46665 3
      vertex 29.4799 5.64818 0
      vertex 29.4799 5.64818 3
    endloop
  endfacet
  facet normal 0.881779 0.471662 0
    outer loop
      vertex 29.4799 5.64818 0
      vertex 29.577 5.46665 3
      vertex 29.577 5.46665 0
    endloop
  endfacet
  facet normal 0.957012 -0.290048 0
    outer loop
      vertex 29.4202 6.25484 3
      vertex 29.4799 6.45182 0
      vertex 29.4799 6.45182 3
    endloop
  endfacet
  facet normal 0.957012 -0.290048 0
    outer loop
      vertex 29.4799 6.45182 0
      vertex 29.4202 6.25484 3
      vertex 29.4202 6.25484 0
    endloop
  endfacet
  facet normal 0.471662 -0.881779 0
    outer loop
      vertex 7.01665 64.773 0
      vertex 7.19818 64.8701 3
      vertex 7.01665 64.773 3
    endloop
  endfacet
  facet normal 0.471662 -0.881779 0
    outer loop
      vertex 7.19818 64.8701 3
      vertex 7.01665 64.773 0
      vertex 7.19818 64.8701 0
    endloop
  endfacet
  facet normal -0.956953 -0.290243 0
    outer loop
      vertex 8.62982 64.1048 0
      vertex 8.57007 64.3018 3
      vertex 8.57007 64.3018 0
    endloop
  endfacet
  facet normal -0.956953 -0.290243 0
    outer loop
      vertex 8.57007 64.3018 3
      vertex 8.62982 64.1048 0
      vertex 8.62982 64.1048 3
    endloop
  endfacet
  facet normal -0.99518 -0.0980603 0
    outer loop
      vertex 8.65 63.9 0
      vertex 8.62982 64.1048 3
      vertex 8.62982 64.1048 0
    endloop
  endfacet
  facet normal -0.99518 -0.0980603 0
    outer loop
      vertex 8.62982 64.1048 3
      vertex 8.65 63.9 0
      vertex 8.65 63.9 3
    endloop
  endfacet
  facet normal -0.881888 -0.471458 0
    outer loop
      vertex 8.57007 64.3018 0
      vertex 8.47304 64.4833 3
      vertex 8.47304 64.4833 0
    endloop
  endfacet
  facet normal -0.881888 -0.471458 0
    outer loop
      vertex 8.47304 64.4833 3
      vertex 8.57007 64.3018 0
      vertex 8.57007 64.3018 3
    endloop
  endfacet
  facet normal 0.956953 0.290243 0
    outer loop
      vertex 6.62993 63.4982 3
      vertex 6.57018 63.6952 0
      vertex 6.57018 63.6952 3
    endloop
  endfacet
  facet normal 0.956953 0.290243 0
    outer loop
      vertex 6.57018 63.6952 0
      vertex 6.62993 63.4982 3
      vertex 6.62993 63.4982 0
    endloop
  endfacet
  facet normal -0.471662 0.881779 0
    outer loop
      vertex 8.18335 63.027 0
      vertex 8.00182 62.9299 3
      vertex 8.18335 63.027 3
    endloop
  endfacet
  facet normal -0.471662 0.881779 0
    outer loop
      vertex 8.00182 62.9299 3
      vertex 8.18335 63.027 0
      vertex 8.00182 62.9299 0
    endloop
  endfacet
  facet normal 0.881888 -0.471458 0
    outer loop
      vertex 6.62993 64.3018 3
      vertex 6.72696 64.4833 0
      vertex 6.72696 64.4833 3
    endloop
  endfacet
  facet normal 0.881888 -0.471458 0
    outer loop
      vertex 6.72696 64.4833 0
      vertex 6.62993 64.3018 3
      vertex 6.62993 64.3018 0
    endloop
  endfacet
  facet normal -0.773182 -0.634184 0
    outer loop
      vertex 8.47304 64.4833 0
      vertex 8.34246 64.6425 3
      vertex 8.34246 64.6425 0
    endloop
  endfacet
  facet normal -0.773182 -0.634184 0
    outer loop
      vertex 8.34246 64.6425 3
      vertex 8.47304 64.4833 0
      vertex 8.47304 64.4833 3
    endloop
  endfacet
  facet normal -0.956953 0.290243 0
    outer loop
      vertex 8.57007 63.4982 0
      vertex 8.62982 63.6952 3
      vertex 8.62982 63.6952 0
    endloop
  endfacet
  facet normal -0.956953 0.290243 0
    outer loop
      vertex 8.62982 63.6952 3
      vertex 8.57007 63.4982 0
      vertex 8.57007 63.4982 3
    endloop
  endfacet
  facet normal 0.881888 0.471458 0
    outer loop
      vertex 6.72696 63.3167 3
      vertex 6.62993 63.4982 0
      vertex 6.62993 63.4982 3
    endloop
  endfacet
  facet normal 0.881888 0.471458 0
    outer loop
      vertex 6.62993 63.4982 0
      vertex 6.72696 63.3167 3
      vertex 6.72696 63.3167 0
    endloop
  endfacet
  facet normal -0.99518 0.0980603 0
    outer loop
      vertex 8.62982 63.6952 0
      vertex 8.65 63.9 3
      vertex 8.65 63.9 0
    endloop
  endfacet
  facet normal -0.99518 0.0980603 0
    outer loop
      vertex 8.65 63.9 3
      vertex 8.62982 63.6952 0
      vertex 8.62982 63.6952 3
    endloop
  endfacet
  facet normal -0.471662 -0.881779 0
    outer loop
      vertex 8.00182 64.8701 0
      vertex 8.18335 64.773 3
      vertex 8.00182 64.8701 3
    endloop
  endfacet
  facet normal -0.471662 -0.881779 -0
    outer loop
      vertex 8.18335 64.773 3
      vertex 8.00182 64.8701 0
      vertex 8.18335 64.773 0
    endloop
  endfacet
  facet normal -0.0981375 -0.995173 0
    outer loop
      vertex 7.6 64.95 0
      vertex 7.80484 64.9298 3
      vertex 7.6 64.95 3
    endloop
  endfacet
  facet normal -0.0981375 -0.995173 -0
    outer loop
      vertex 7.80484 64.9298 3
      vertex 7.6 64.95 0
      vertex 7.80484 64.9298 0
    endloop
  endfacet
  facet normal -0.634166 -0.773197 0
    outer loop
      vertex 8.18335 64.773 0
      vertex 8.34246 64.6425 3
      vertex 8.18335 64.773 3
    endloop
  endfacet
  facet normal -0.634166 -0.773197 -0
    outer loop
      vertex 8.34246 64.6425 3
      vertex 8.18335 64.773 0
      vertex 8.34246 64.6425 0
    endloop
  endfacet
  facet normal -0.0981375 0.995173 0
    outer loop
      vertex 7.80484 62.8702 0
      vertex 7.6 62.85 3
      vertex 7.80484 62.8702 3
    endloop
  endfacet
  facet normal -0.0981375 0.995173 0
    outer loop
      vertex 7.6 62.85 3
      vertex 7.80484 62.8702 0
      vertex 7.6 62.85 0
    endloop
  endfacet
  facet normal 0.471662 0.881779 -0
    outer loop
      vertex 7.19818 62.9299 0
      vertex 7.01665 63.027 3
      vertex 7.19818 62.9299 3
    endloop
  endfacet
  facet normal 0.471662 0.881779 0
    outer loop
      vertex 7.01665 63.027 3
      vertex 7.19818 62.9299 0
      vertex 7.01665 63.027 0
    endloop
  endfacet
  facet normal -0.773182 0.634184 0
    outer loop
      vertex 8.34246 63.1575 0
      vertex 8.47304 63.3167 3
      vertex 8.47304 63.3167 0
    endloop
  endfacet
  facet normal -0.773182 0.634184 0
    outer loop
      vertex 8.47304 63.3167 3
      vertex 8.34246 63.1575 0
      vertex 8.34246 63.1575 3
    endloop
  endfacet
  facet normal -0.634166 0.773197 0
    outer loop
      vertex 8.34246 63.1575 0
      vertex 8.18335 63.027 3
      vertex 8.34246 63.1575 3
    endloop
  endfacet
  facet normal -0.634166 0.773197 0
    outer loop
      vertex 8.18335 63.027 3
      vertex 8.34246 63.1575 0
      vertex 8.18335 63.027 0
    endloop
  endfacet
  facet normal 0.773182 -0.634184 0
    outer loop
      vertex 6.72696 64.4833 3
      vertex 6.85754 64.6425 0
      vertex 6.85754 64.6425 3
    endloop
  endfacet
  facet normal 0.773182 -0.634184 0
    outer loop
      vertex 6.85754 64.6425 0
      vertex 6.72696 64.4833 3
      vertex 6.72696 64.4833 0
    endloop
  endfacet
  facet normal -0.290048 -0.957012 0
    outer loop
      vertex 7.80484 64.9298 0
      vertex 8.00182 64.8701 3
      vertex 7.80484 64.9298 3
    endloop
  endfacet
  facet normal -0.290048 -0.957012 -0
    outer loop
      vertex 8.00182 64.8701 3
      vertex 7.80484 64.9298 0
      vertex 8.00182 64.8701 0
    endloop
  endfacet
  facet normal 0.634166 -0.773197 0
    outer loop
      vertex 6.85754 64.6425 0
      vertex 7.01665 64.773 3
      vertex 6.85754 64.6425 3
    endloop
  endfacet
  facet normal 0.634166 -0.773197 0
    outer loop
      vertex 7.01665 64.773 3
      vertex 6.85754 64.6425 0
      vertex 7.01665 64.773 0
    endloop
  endfacet
  facet normal 0.0981328 -0.995173 0
    outer loop
      vertex 7.39515 64.9298 0
      vertex 7.6 64.95 3
      vertex 7.39515 64.9298 3
    endloop
  endfacet
  facet normal 0.0981328 -0.995173 0
    outer loop
      vertex 7.6 64.95 3
      vertex 7.39515 64.9298 0
      vertex 7.6 64.95 0
    endloop
  endfacet
  facet normal 0.290061 -0.957008 0
    outer loop
      vertex 7.19818 64.8701 0
      vertex 7.39515 64.9298 3
      vertex 7.19818 64.8701 3
    endloop
  endfacet
  facet normal 0.290061 -0.957008 0
    outer loop
      vertex 7.39515 64.9298 3
      vertex 7.19818 64.8701 0
      vertex 7.39515 64.9298 0
    endloop
  endfacet
  facet normal -0.881888 0.471458 0
    outer loop
      vertex 8.47304 63.3167 0
      vertex 8.57007 63.4982 3
      vertex 8.57007 63.4982 0
    endloop
  endfacet
  facet normal -0.881888 0.471458 0
    outer loop
      vertex 8.57007 63.4982 3
      vertex 8.47304 63.3167 0
      vertex 8.47304 63.3167 3
    endloop
  endfacet
  facet normal 0.773182 0.634184 0
    outer loop
      vertex 6.85754 63.1575 3
      vertex 6.72696 63.3167 0
      vertex 6.72696 63.3167 3
    endloop
  endfacet
  facet normal 0.773182 0.634184 0
    outer loop
      vertex 6.72696 63.3167 0
      vertex 6.85754 63.1575 3
      vertex 6.85754 63.1575 0
    endloop
  endfacet
  facet normal 0.0981328 0.995173 -0
    outer loop
      vertex 7.6 62.85 0
      vertex 7.39515 62.8702 3
      vertex 7.6 62.85 3
    endloop
  endfacet
  facet normal 0.0981328 0.995173 0
    outer loop
      vertex 7.39515 62.8702 3
      vertex 7.6 62.85 0
      vertex 7.39515 62.8702 0
    endloop
  endfacet
  facet normal 0.290061 0.957008 -0
    outer loop
      vertex 7.39515 62.8702 0
      vertex 7.19818 62.9299 3
      vertex 7.39515 62.8702 3
    endloop
  endfacet
  facet normal 0.290061 0.957008 0
    outer loop
      vertex 7.19818 62.9299 3
      vertex 7.39515 62.8702 0
      vertex 7.19818 62.9299 0
    endloop
  endfacet
  facet normal 0.99518 0.0980603 0
    outer loop
      vertex 6.57018 63.6952 3
      vertex 6.55 63.9 0
      vertex 6.55 63.9 3
    endloop
  endfacet
  facet normal 0.99518 0.0980603 0
    outer loop
      vertex 6.55 63.9 0
      vertex 6.57018 63.6952 3
      vertex 6.57018 63.6952 0
    endloop
  endfacet
  facet normal 0.634166 0.773197 -0
    outer loop
      vertex 7.01665 63.027 0
      vertex 6.85754 63.1575 3
      vertex 7.01665 63.027 3
    endloop
  endfacet
  facet normal 0.634166 0.773197 0
    outer loop
      vertex 6.85754 63.1575 3
      vertex 7.01665 63.027 0
      vertex 6.85754 63.1575 0
    endloop
  endfacet
  facet normal -0.290048 0.957012 0
    outer loop
      vertex 8.00182 62.9299 0
      vertex 7.80484 62.8702 3
      vertex 8.00182 62.9299 3
    endloop
  endfacet
  facet normal -0.290048 0.957012 0
    outer loop
      vertex 7.80484 62.8702 3
      vertex 8.00182 62.9299 0
      vertex 7.80484 62.8702 0
    endloop
  endfacet
  facet normal 0.956953 -0.290243 0
    outer loop
      vertex 6.57018 64.1048 3
      vertex 6.62993 64.3018 0
      vertex 6.62993 64.3018 3
    endloop
  endfacet
  facet normal 0.956953 -0.290243 0
    outer loop
      vertex 6.62993 64.3018 0
      vertex 6.57018 64.1048 3
      vertex 6.57018 64.1048 0
    endloop
  endfacet
  facet normal 0.99518 -0.0980603 0
    outer loop
      vertex 6.55 63.9 3
      vertex 6.57018 64.1048 0
      vertex 6.57018 64.1048 3
    endloop
  endfacet
  facet normal 0.99518 -0.0980603 0
    outer loop
      vertex 6.57018 64.1048 0
      vertex 6.55 63.9 3
      vertex 6.55 63.9 0
    endloop
  endfacet
  facet normal 0.0981565 0.995171 -0
    outer loop
      vertex 30.45 62.85 0
      vertex 30.2452 62.8702 3
      vertex 30.45 62.85 3
    endloop
  endfacet
  facet normal 0.0981565 0.995171 0
    outer loop
      vertex 30.2452 62.8702 3
      vertex 30.45 62.85 0
      vertex 30.2452 62.8702 0
    endloop
  endfacet
  facet normal -0.773373 0.633952 0
    outer loop
      vertex 31.1925 63.1575 0
      vertex 31.323 63.3167 3
      vertex 31.323 63.3167 0
    endloop
  endfacet
  facet normal -0.773373 0.633952 0
    outer loop
      vertex 31.323 63.3167 3
      vertex 31.1925 63.1575 0
      vertex 31.1925 63.1575 3
    endloop
  endfacet
  facet normal -0.95702 -0.290021 0
    outer loop
      vertex 31.4798 64.1048 0
      vertex 31.4201 64.3018 3
      vertex 31.4201 64.3018 0
    endloop
  endfacet
  facet normal -0.95702 -0.290021 0
    outer loop
      vertex 31.4201 64.3018 3
      vertex 31.4798 64.1048 0
      vertex 31.4798 64.1048 3
    endloop
  endfacet
  facet normal -0.995171 -0.0981565 0
    outer loop
      vertex 31.5 63.9 0
      vertex 31.4798 64.1048 3
      vertex 31.4798 64.1048 0
    endloop
  endfacet
  facet normal -0.995171 -0.0981565 0
    outer loop
      vertex 31.4798 64.1048 3
      vertex 31.5 63.9 0
      vertex 31.5 63.9 3
    endloop
  endfacet
  facet normal -0.881747 -0.471723 0
    outer loop
      vertex 31.4201 64.3018 0
      vertex 31.323 64.4833 3
      vertex 31.323 64.4833 0
    endloop
  endfacet
  facet normal -0.881747 -0.471723 0
    outer loop
      vertex 31.323 64.4833 3
      vertex 31.4201 64.3018 0
      vertex 31.4201 64.3018 3
    endloop
  endfacet
  facet normal 0.881747 0.471723 0
    outer loop
      vertex 29.577 63.3167 3
      vertex 29.4799 63.4982 0
      vertex 29.4799 63.4982 3
    endloop
  endfacet
  facet normal 0.881747 0.471723 0
    outer loop
      vertex 29.4799 63.4982 0
      vertex 29.577 63.3167 3
      vertex 29.577 63.3167 0
    endloop
  endfacet
  facet normal -0.995171 0.0981565 0
    outer loop
      vertex 31.4798 63.6952 0
      vertex 31.5 63.9 3
      vertex 31.5 63.9 0
    endloop
  endfacet
  facet normal -0.995171 0.0981565 0
    outer loop
      vertex 31.5 63.9 3
      vertex 31.4798 63.6952 0
      vertex 31.4798 63.6952 3
    endloop
  endfacet
  facet normal -0.290021 0.95702 0
    outer loop
      vertex 30.8518 62.9299 0
      vertex 30.6548 62.8702 3
      vertex 30.8518 62.9299 3
    endloop
  endfacet
  facet normal -0.290021 0.95702 0
    outer loop
      vertex 30.6548 62.8702 3
      vertex 30.8518 62.9299 0
      vertex 30.6548 62.8702 0
    endloop
  endfacet
  facet normal 0.995171 0.0981565 0
    outer loop
      vertex 29.4202 63.6952 3
      vertex 29.4 63.9 0
      vertex 29.4 63.9 3
    endloop
  endfacet
  facet normal 0.995171 0.0981565 0
    outer loop
      vertex 29.4 63.9 0
      vertex 29.4202 63.6952 3
      vertex 29.4202 63.6952 0
    endloop
  endfacet
  facet normal -0.0981565 -0.995171 0
    outer loop
      vertex 30.45 64.95 0
      vertex 30.6548 64.9298 3
      vertex 30.45 64.95 3
    endloop
  endfacet
  facet normal -0.0981565 -0.995171 -0
    outer loop
      vertex 30.6548 64.9298 3
      vertex 30.45 64.95 0
      vertex 30.6548 64.9298 0
    endloop
  endfacet
  facet normal -0.95702 0.290021 0
    outer loop
      vertex 31.4201 63.4982 0
      vertex 31.4798 63.6952 3
      vertex 31.4798 63.6952 0
    endloop
  endfacet
  facet normal -0.95702 0.290021 0
    outer loop
      vertex 31.4798 63.6952 3
      vertex 31.4201 63.4982 0
      vertex 31.4201 63.4982 3
    endloop
  endfacet
  facet normal 0.290021 0.95702 -0
    outer loop
      vertex 30.2452 62.8702 0
      vertex 30.0482 62.9299 3
      vertex 30.2452 62.8702 3
    endloop
  endfacet
  facet normal 0.290021 0.95702 0
    outer loop
      vertex 30.0482 62.9299 3
      vertex 30.2452 62.8702 0
      vertex 30.0482 62.9299 0
    endloop
  endfacet
  facet normal 0.995171 -0.0981565 0
    outer loop
      vertex 29.4 63.9 3
      vertex 29.4202 64.1048 0
      vertex 29.4202 64.1048 3
    endloop
  endfacet
  facet normal 0.995171 -0.0981565 0
    outer loop
      vertex 29.4202 64.1048 0
      vertex 29.4 63.9 3
      vertex 29.4 63.9 0
    endloop
  endfacet
  facet normal -0.290021 -0.95702 0
    outer loop
      vertex 30.6548 64.9298 0
      vertex 30.8518 64.8701 3
      vertex 30.6548 64.9298 3
    endloop
  endfacet
  facet normal -0.290021 -0.95702 -0
    outer loop
      vertex 30.8518 64.8701 3
      vertex 30.6548 64.9298 0
      vertex 30.8518 64.8701 0
    endloop
  endfacet
  facet normal 0.0981565 -0.995171 0
    outer loop
      vertex 30.2452 64.9298 0
      vertex 30.45 64.95 3
      vertex 30.2452 64.9298 3
    endloop
  endfacet
  facet normal 0.0981565 -0.995171 0
    outer loop
      vertex 30.45 64.95 3
      vertex 30.2452 64.9298 0
      vertex 30.45 64.95 0
    endloop
  endfacet
  facet normal 0.95702 -0.290021 0
    outer loop
      vertex 29.4202 64.1048 3
      vertex 29.4799 64.3018 0
      vertex 29.4799 64.3018 3
    endloop
  endfacet
  facet normal 0.95702 -0.290021 0
    outer loop
      vertex 29.4799 64.3018 0
      vertex 29.4202 64.1048 3
      vertex 29.4202 64.1048 0
    endloop
  endfacet
  facet normal 0.63419 -0.773177 0
    outer loop
      vertex 29.7075 64.6425 0
      vertex 29.8666 64.773 3
      vertex 29.7075 64.6425 3
    endloop
  endfacet
  facet normal 0.63419 -0.773177 0
    outer loop
      vertex 29.8666 64.773 3
      vertex 29.7075 64.6425 0
      vertex 29.8666 64.773 0
    endloop
  endfacet
  facet normal -0.773373 -0.633952 0
    outer loop
      vertex 31.323 64.4833 0
      vertex 31.1925 64.6425 3
      vertex 31.1925 64.6425 0
    endloop
  endfacet
  facet normal -0.773373 -0.633952 0
    outer loop
      vertex 31.1925 64.6425 3
      vertex 31.323 64.4833 0
      vertex 31.323 64.4833 3
    endloop
  endfacet
  facet normal 0.471521 -0.881855 0
    outer loop
      vertex 29.8666 64.773 0
      vertex 30.0482 64.8701 3
      vertex 29.8666 64.773 3
    endloop
  endfacet
  facet normal 0.471521 -0.881855 0
    outer loop
      vertex 30.0482 64.8701 3
      vertex 29.8666 64.773 0
      vertex 30.0482 64.8701 0
    endloop
  endfacet
  facet normal -0.471723 0.881747 0
    outer loop
      vertex 31.0333 63.027 0
      vertex 30.8518 62.9299 3
      vertex 31.0333 63.027 3
    endloop
  endfacet
  facet normal -0.471723 0.881747 0
    outer loop
      vertex 30.8518 62.9299 3
      vertex 31.0333 63.027 0
      vertex 30.8518 62.9299 0
    endloop
  endfacet
  facet normal -0.881747 0.471723 0
    outer loop
      vertex 31.323 63.3167 0
      vertex 31.4201 63.4982 3
      vertex 31.4201 63.4982 0
    endloop
  endfacet
  facet normal -0.881747 0.471723 0
    outer loop
      vertex 31.4201 63.4982 3
      vertex 31.323 63.3167 0
      vertex 31.323 63.3167 3
    endloop
  endfacet
  facet normal -0.633952 -0.773373 0
    outer loop
      vertex 31.0333 64.773 0
      vertex 31.1925 64.6425 3
      vertex 31.0333 64.773 3
    endloop
  endfacet
  facet normal -0.633952 -0.773373 -0
    outer loop
      vertex 31.1925 64.6425 3
      vertex 31.0333 64.773 0
      vertex 31.1925 64.6425 0
    endloop
  endfacet
  facet normal -0.633952 0.773373 0
    outer loop
      vertex 31.1925 63.1575 0
      vertex 31.0333 63.027 3
      vertex 31.1925 63.1575 3
    endloop
  endfacet
  facet normal -0.633952 0.773373 0
    outer loop
      vertex 31.0333 63.027 3
      vertex 31.1925 63.1575 0
      vertex 31.0333 63.027 0
    endloop
  endfacet
  facet normal -0.471723 -0.881747 0
    outer loop
      vertex 30.8518 64.8701 0
      vertex 31.0333 64.773 3
      vertex 30.8518 64.8701 3
    endloop
  endfacet
  facet normal -0.471723 -0.881747 -0
    outer loop
      vertex 31.0333 64.773 3
      vertex 30.8518 64.8701 0
      vertex 31.0333 64.773 0
    endloop
  endfacet
  facet normal 0.290021 -0.95702 0
    outer loop
      vertex 30.0482 64.8701 0
      vertex 30.2452 64.9298 3
      vertex 30.0482 64.8701 3
    endloop
  endfacet
  facet normal 0.290021 -0.95702 0
    outer loop
      vertex 30.2452 64.9298 3
      vertex 30.0482 64.8701 0
      vertex 30.2452 64.9298 0
    endloop
  endfacet
  facet normal -0.0981565 0.995171 0
    outer loop
      vertex 30.6548 62.8702 0
      vertex 30.45 62.85 3
      vertex 30.6548 62.8702 3
    endloop
  endfacet
  facet normal -0.0981565 0.995171 0
    outer loop
      vertex 30.45 62.85 3
      vertex 30.6548 62.8702 0
      vertex 30.45 62.85 0
    endloop
  endfacet
  facet normal 0.95702 0.290021 0
    outer loop
      vertex 29.4799 63.4982 3
      vertex 29.4202 63.6952 0
      vertex 29.4202 63.6952 3
    endloop
  endfacet
  facet normal 0.95702 0.290021 0
    outer loop
      vertex 29.4202 63.6952 0
      vertex 29.4799 63.4982 3
      vertex 29.4799 63.4982 0
    endloop
  endfacet
  facet normal 0.773373 -0.633952 0
    outer loop
      vertex 29.577 64.4833 3
      vertex 29.7075 64.6425 0
      vertex 29.7075 64.6425 3
    endloop
  endfacet
  facet normal 0.773373 -0.633952 0
    outer loop
      vertex 29.7075 64.6425 0
      vertex 29.577 64.4833 3
      vertex 29.577 64.4833 0
    endloop
  endfacet
  facet normal 0.773373 0.633952 0
    outer loop
      vertex 29.7075 63.1575 3
      vertex 29.577 63.3167 0
      vertex 29.577 63.3167 3
    endloop
  endfacet
  facet normal 0.773373 0.633952 0
    outer loop
      vertex 29.577 63.3167 0
      vertex 29.7075 63.1575 3
      vertex 29.7075 63.1575 0
    endloop
  endfacet
  facet normal 0.63419 0.773177 -0
    outer loop
      vertex 29.8666 63.027 0
      vertex 29.7075 63.1575 3
      vertex 29.8666 63.027 3
    endloop
  endfacet
  facet normal 0.63419 0.773177 0
    outer loop
      vertex 29.7075 63.1575 3
      vertex 29.8666 63.027 0
      vertex 29.7075 63.1575 0
    endloop
  endfacet
  facet normal 0.471521 0.881855 -0
    outer loop
      vertex 30.0482 62.9299 0
      vertex 29.8666 63.027 3
      vertex 30.0482 62.9299 3
    endloop
  endfacet
  facet normal 0.471521 0.881855 0
    outer loop
      vertex 29.8666 63.027 3
      vertex 30.0482 62.9299 0
      vertex 29.8666 63.027 0
    endloop
  endfacet
  facet normal 0.881747 -0.471723 0
    outer loop
      vertex 29.4799 64.3018 3
      vertex 29.577 64.4833 0
      vertex 29.577 64.4833 3
    endloop
  endfacet
  facet normal 0.881747 -0.471723 0
    outer loop
      vertex 29.577 64.4833 0
      vertex 29.4799 64.3018 3
      vertex 29.4799 64.3018 0
    endloop
  endfacet
endsolid OpenSCAD_Model
