solid OpenSCAD_Model
  facet normal -0.954718 0.297512 0
    outer loop
      vertex -50 42 0
      vertex -49.2919 44.2723 3
      vertex -49.2919 44.2723 0
    endloop
  endfacet
  facet normal -0.954718 0.297512 0
    outer loop
      vertex -49.2919 44.2723 3
      vertex -50 42 0
      vertex -50 42 3
    endloop
  endfacet
  facet normal 0.954718 -0.297512 0
    outer loop
      vertex 49.2919 -18.2723 3
      vertex 50 -16 0
      vertex 50 -16 3
    endloop
  endfacet
  facet normal 0.954718 -0.297512 0
    outer loop
      vertex 50 -16 0
      vertex 49.2919 -18.2723 3
      vertex 49.2919 -18.2723 0
    endloop
  endfacet
  facet normal 0.663115 -0.748518 0
    outer loop
      vertex 47.8589 -19.5418 0
      vertex 49.2919 -18.2723 3
      vertex 47.8589 -19.5418 3
    endloop
  endfacet
  facet normal 0.663115 -0.748518 0
    outer loop
      vertex 49.2919 -18.2723 3
      vertex 47.8589 -19.5418 0
      vertex 49.2919 -18.2723 0
    endloop
  endfacet
  facet normal 0.748518 0.663115 0
    outer loop
      vertex 49.5418 43.8589 3
      vertex 48.2723 45.2919 0
      vertex 48.2723 45.2919 3
    endloop
  endfacet
  facet normal 0.748518 0.663115 0
    outer loop
      vertex 48.2723 45.2919 0
      vertex 49.5418 43.8589 3
      vertex 49.5418 43.8589 0
    endloop
  endfacet
  facet normal 0.297512 0.954718 -0
    outer loop
      vertex 48.2723 45.2919 0
      vertex 46 46 3
      vertex 48.2723 45.2919 3
    endloop
  endfacet
  facet normal 0.297512 0.954718 0
    outer loop
      vertex 46 46 3
      vertex 48.2723 45.2919 0
      vertex 46 46 0
    endloop
  endfacet
  facet normal -0.239327 0.970939 0
    outer loop
      vertex -46 46 0
      vertex -47.8589 45.5418 3
      vertex -46 46 3
    endloop
  endfacet
  facet normal -0.239327 0.970939 0
    outer loop
      vertex -47.8589 45.5418 3
      vertex -46 46 0
      vertex -47.8589 45.5418 0
    endloop
  endfacet
  facet normal -0.748518 -0.663115 0
    outer loop
      vertex -48.2723 -19.2919 0
      vertex -49.5418 -17.8589 3
      vertex -49.5418 -17.8589 0
    endloop
  endfacet
  facet normal -0.748518 -0.663115 0
    outer loop
      vertex -49.5418 -17.8589 3
      vertex -48.2723 -19.2919 0
      vertex -48.2723 -19.2919 3
    endloop
  endfacet
  facet normal 0.239327 -0.970939 0
    outer loop
      vertex 46 -20 0
      vertex 47.8589 -19.5418 3
      vertex 46 -20 3
    endloop
  endfacet
  facet normal 0.239327 -0.970939 0
    outer loop
      vertex 47.8589 -19.5418 3
      vertex 46 -20 0
      vertex 47.8589 -19.5418 0
    endloop
  endfacet
  facet normal -1 0 0
    outer loop
      vertex -50 -16 0
      vertex -50 42 3
      vertex -50 42 0
    endloop
  endfacet
  facet normal -1 -0 0
    outer loop
      vertex -50 42 3
      vertex -50 -16 0
      vertex -50 -16 3
    endloop
  endfacet
  facet normal 0 -1 0
    outer loop
      vertex -46 -20 0
      vertex 46 -20 3
      vertex -46 -20 3
    endloop
  endfacet
  facet normal 0 -1 -0
    outer loop
      vertex 46 -20 3
      vertex -46 -20 0
      vertex 46 -20 0
    endloop
  endfacet
  facet normal -0.297512 -0.954718 0
    outer loop
      vertex -48.2723 -19.2919 0
      vertex -46 -20 3
      vertex -48.2723 -19.2919 3
    endloop
  endfacet
  facet normal -0.297512 -0.954718 -0
    outer loop
      vertex -46 -20 3
      vertex -48.2723 -19.2919 0
      vertex -46 -20 0
    endloop
  endfacet
  facet normal 0.970939 0.239327 0
    outer loop
      vertex 50 42 3
      vertex 49.5418 43.8589 0
      vertex 49.5418 43.8589 3
    endloop
  endfacet
  facet normal 0.970939 0.239327 0
    outer loop
      vertex 49.5418 43.8589 0
      vertex 50 42 3
      vertex 50 42 0
    endloop
  endfacet
  facet normal -0.663115 0.748518 0
    outer loop
      vertex -47.8589 45.5418 0
      vertex -49.2919 44.2723 3
      vertex -47.8589 45.5418 3
    endloop
  endfacet
  facet normal -0.663115 0.748518 0
    outer loop
      vertex -49.2919 44.2723 3
      vertex -47.8589 45.5418 0
      vertex -49.2919 44.2723 0
    endloop
  endfacet
  facet normal -0.970939 -0.239327 0
    outer loop
      vertex -49.5418 -17.8589 0
      vertex -50 -16 3
      vertex -50 -16 0
    endloop
  endfacet
  facet normal -0.970939 -0.239327 0
    outer loop
      vertex -50 -16 3
      vertex -49.5418 -17.8589 0
      vertex -49.5418 -17.8589 3
    endloop
  endfacet
  facet normal 0 0 -1
    outer loop
      vertex 46 46 0
      vertex 50 42 0
      vertex 50 -16 0
    endloop
  endfacet
  facet normal 0 0 -1
    outer loop
      vertex 46 -20 0
      vertex 50 -16 0
      vertex 49.2919 -18.2723 0
    endloop
  endfacet
  facet normal 0 0 -1
    outer loop
      vertex 46 46 0
      vertex 50 -16 0
      vertex 46 -20 0
    endloop
  endfacet
  facet normal 0 0 -1
    outer loop
      vertex 46 -20 0
      vertex 49.2919 -18.2723 0
      vertex 47.8589 -19.5418 0
    endloop
  endfacet
  facet normal 0 0 -1
    outer loop
      vertex 50 42 0
      vertex 46 46 0
      vertex 49.5418 43.8589 0
    endloop
  endfacet
  facet normal 0 0 -1
    outer loop
      vertex 49.5418 43.8589 0
      vertex 46 46 0
      vertex 48.2723 45.2919 0
    endloop
  endfacet
  facet normal 0 0 -1
    outer loop
      vertex -46 -20 0
      vertex 46 46 0
      vertex 46 -20 0
    endloop
  endfacet
  facet normal 0 0 -1
    outer loop
      vertex -46 -20 0
      vertex -46 46 0
      vertex 46 46 0
    endloop
  endfacet
  facet normal 0 0 -1
    outer loop
      vertex -50 42 0
      vertex -46 46 0
      vertex -46 -20 0
    endloop
  endfacet
  facet normal 0 0 -1
    outer loop
      vertex -50 -16 0
      vertex -46 -20 0
      vertex -48.2723 -19.2919 0
    endloop
  endfacet
  facet normal 0 0 -1
    outer loop
      vertex -50 42 0
      vertex -46 -20 0
      vertex -50 -16 0
    endloop
  endfacet
  facet normal 0 0 -1
    outer loop
      vertex -50 -16 0
      vertex -48.2723 -19.2919 0
      vertex -49.5418 -17.8589 0
    endloop
  endfacet
  facet normal 0 0 -1
    outer loop
      vertex -46 46 0
      vertex -50 42 0
      vertex -47.8589 45.5418 0
    endloop
  endfacet
  facet normal 0 0 -1
    outer loop
      vertex -47.8589 45.5418 0
      vertex -50 42 0
      vertex -49.2919 44.2723 0
    endloop
  endfacet
  facet normal 1 -0 0
    outer loop
      vertex 50 -16 3
      vertex 50 42 0
      vertex 50 42 3
    endloop
  endfacet
  facet normal 1 0 0
    outer loop
      vertex 50 42 0
      vertex 50 -16 3
      vertex 50 -16 0
    endloop
  endfacet
  facet normal 0 1 -0
    outer loop
      vertex 46 46 0
      vertex -46 46 3
      vertex 46 46 3
    endloop
  endfacet
  facet normal 0 1 0
    outer loop
      vertex -46 46 3
      vertex 46 46 0
      vertex -46 46 0
    endloop
  endfacet
  facet normal 0 0 1
    outer loop
      vertex 11.47 -7 3
      vertex -10.25 -7 3
      vertex 11.47 -10.18 3
    endloop
  endfacet
  facet normal 0 0 1
    outer loop
      vertex 46 46 3
      vertex 21.697 41.2137 3
      vertex 22.45 39.65 3
    endloop
  endfacet
  facet normal 0 0 1
    outer loop
      vertex 46 46 3
      vertex 20.45 41.65 3
      vertex 21.697 41.2137 3
    endloop
  endfacet
  facet normal 0 0 1
    outer loop
      vertex 46 46 3
      vertex -20.45 41.65 3
      vertex 20.45 41.65 3
    endloop
  endfacet
  facet normal -0 0 1
    outer loop
      vertex -50 42 3
      vertex -22.45 39.65 3
      vertex -46 46 3
    endloop
  endfacet
  facet normal 0 0 1
    outer loop
      vertex -22.0137 40.897 3
      vertex -46 46 3
      vertex -22.45 39.65 3
    endloop
  endfacet
  facet normal 0 0 1
    outer loop
      vertex -20.45 41.65 3
      vertex -46 46 3
      vertex -22.0137 40.897 3
    endloop
  endfacet
  facet normal -0 0 1
    outer loop
      vertex -46 46 3
      vertex -20.45 41.65 3
      vertex 46 46 3
    endloop
  endfacet
  facet normal 0 0 1
    outer loop
      vertex 46 46 3
      vertex 50 42 3
      vertex 49.5418 43.8589 3
    endloop
  endfacet
  facet normal 0 0 1
    outer loop
      vertex 50 42 3
      vertex 48.53 10.18 3
      vertex 50 -16 3
    endloop
  endfacet
  facet normal -0 0 1
    outer loop
      vertex 48.53 -10.18 3
      vertex 50 -16 3
      vertex 48.53 10.18 3
    endloop
  endfacet
  facet normal 0 0 1
    outer loop
      vertex 46 46 3
      vertex 49.5418 43.8589 3
      vertex 48.2723 45.2919 3
    endloop
  endfacet
  facet normal 0 0 1
    outer loop
      vertex 50 42 3
      vertex 47.777 11.7437 3
      vertex 48.53 10.18 3
    endloop
  endfacet
  facet normal 0 0 1
    outer loop
      vertex 50 42 3
      vertex 46.53 12.18 3
      vertex 47.777 11.7437 3
    endloop
  endfacet
  facet normal 0 0 1
    outer loop
      vertex 22.45 39.65 3
      vertex 50 42 3
      vertex 46 46 3
    endloop
  endfacet
  facet normal 0 0 1
    outer loop
      vertex 50 42 3
      vertex 22.45 39.65 3
      vertex 46.53 12.18 3
    endloop
  endfacet
  facet normal -0 0 1
    outer loop
      vertex 22.45 16.35 3
      vertex 46.53 12.18 3
      vertex 22.45 39.65 3
    endloop
  endfacet
  facet normal -0 0 1
    outer loop
      vertex 22.0137 15.103 3
      vertex 46.53 12.18 3
      vertex 22.45 16.35 3
    endloop
  endfacet
  facet normal -0 0 1
    outer loop
      vertex 20.45 14.35 3
      vertex 46.53 12.18 3
      vertex 22.0137 15.103 3
    endloop
  endfacet
  facet normal 0 0 1
    outer loop
      vertex 20.45 14.35 3
      vertex 13.47 12.18 3
      vertex 46.53 12.18 3
    endloop
  endfacet
  facet normal 0 0 1
    outer loop
      vertex -10.25 7 3
      vertex 11.47 10.18 3
      vertex -10.25 11.75 3
    endloop
  endfacet
  facet normal 0 0 1
    outer loop
      vertex 11.9063 11.427 3
      vertex -10.25 11.75 3
      vertex 11.47 10.18 3
    endloop
  endfacet
  facet normal 0 0 1
    outer loop
      vertex -11.003 13.3137 3
      vertex 11.9063 11.427 3
      vertex 13.47 12.18 3
    endloop
  endfacet
  facet normal -0 0 1
    outer loop
      vertex -11.003 13.3137 3
      vertex 13.47 12.18 3
      vertex 20.45 14.35 3
    endloop
  endfacet
  facet normal 0 0 1
    outer loop
      vertex 11.9063 11.427 3
      vertex -11.003 13.3137 3
      vertex -10.25 11.75 3
    endloop
  endfacet
  facet normal 0 0 1
    outer loop
      vertex 20.45 14.35 3
      vertex -12.25 13.75 3
      vertex -11.003 13.3137 3
    endloop
  endfacet
  facet normal -0 0 1
    outer loop
      vertex -20.45 14.35 3
      vertex -12.25 13.75 3
      vertex 20.45 14.35 3
    endloop
  endfacet
  facet normal 0 -0 1
    outer loop
      vertex -47.75 13.75 3
      vertex -22.45 39.65 3
      vertex -50 42 3
    endloop
  endfacet
  facet normal 0 0 1
    outer loop
      vertex -20.45 14.35 3
      vertex -47.75 13.75 3
      vertex -12.25 13.75 3
    endloop
  endfacet
  facet normal 0 0 1
    outer loop
      vertex -21.697 14.7863 3
      vertex -47.75 13.75 3
      vertex -20.45 14.35 3
    endloop
  endfacet
  facet normal 0 0 1
    outer loop
      vertex -22.45 39.65 3
      vertex -47.75 13.75 3
      vertex -22.45 16.35 3
    endloop
  endfacet
  facet normal 0 0 1
    outer loop
      vertex -50 42 3
      vertex -46 46 3
      vertex -47.8589 45.5418 3
    endloop
  endfacet
  facet normal 0 0 1
    outer loop
      vertex -50 42 3
      vertex -47.8589 45.5418 3
      vertex -49.2919 44.2723 3
    endloop
  endfacet
  facet normal 0 0 1
    outer loop
      vertex -22.45 16.35 3
      vertex -47.75 13.75 3
      vertex -21.697 14.7863 3
    endloop
  endfacet
  facet normal 0 0 1
    outer loop
      vertex -47.75 13.75 3
      vertex -50 42 3
      vertex -49.3137 12.997 3
    endloop
  endfacet
  facet normal 0 0 1
    outer loop
      vertex -50 -16 3
      vertex -49.75 11.75 3
      vertex -50 42 3
    endloop
  endfacet
  facet normal 0 0 1
    outer loop
      vertex -49.3137 12.997 3
      vertex -50 42 3
      vertex -49.75 11.75 3
    endloop
  endfacet
  facet normal -0 0 1
    outer loop
      vertex 48.0937 -11.427 3
      vertex 50 -16 3
      vertex 48.53 -10.18 3
    endloop
  endfacet
  facet normal -0 0 1
    outer loop
      vertex 46.53 -12.18 3
      vertex 50 -16 3
      vertex 48.0937 -11.427 3
    endloop
  endfacet
  facet normal 0 0 1
    outer loop
      vertex 50 -16 3
      vertex 46.53 -12.18 3
      vertex 49.2919 -18.2723 3
    endloop
  endfacet
  facet normal 0 0 1
    outer loop
      vertex 49.2919 -18.2723 3
      vertex 46.53 -12.18 3
      vertex 47.8589 -19.5418 3
    endloop
  endfacet
  facet normal 0 0 1
    outer loop
      vertex 46.53 -12.18 3
      vertex 46 -20 3
      vertex 47.8589 -19.5418 3
    endloop
  endfacet
  facet normal -0 0 1
    outer loop
      vertex 13.47 -12.18 3
      vertex 46 -20 3
      vertex 46.53 -12.18 3
    endloop
  endfacet
  facet normal 0 0 1
    outer loop
      vertex -10.25 -11.75 3
      vertex 11.47 -10.18 3
      vertex -10.25 -7 3
    endloop
  endfacet
  facet normal 0 0 1
    outer loop
      vertex 11.47 -10.18 3
      vertex -10.25 -11.75 3
      vertex 12.223 -11.7437 3
    endloop
  endfacet
  facet normal 0 0 1
    outer loop
      vertex -10.6863 -12.997 3
      vertex 12.223 -11.7437 3
      vertex -10.25 -11.75 3
    endloop
  endfacet
  facet normal 0 0 1
    outer loop
      vertex 12.223 -11.7437 3
      vertex -10.6863 -12.997 3
      vertex 13.47 -12.18 3
    endloop
  endfacet
  facet normal 0 0 1
    outer loop
      vertex -12.25 -13.75 3
      vertex 13.47 -12.18 3
      vertex -10.6863 -12.997 3
    endloop
  endfacet
  facet normal 0 0 1
    outer loop
      vertex 13.47 -12.18 3
      vertex -12.25 -13.75 3
      vertex 46 -20 3
    endloop
  endfacet
  facet normal 0 0 1
    outer loop
      vertex -12.25 -13.75 3
      vertex -46 -20 3
      vertex 46 -20 3
    endloop
  endfacet
  facet normal -0 0 1
    outer loop
      vertex -47.75 -13.75 3
      vertex -46 -20 3
      vertex -12.25 -13.75 3
    endloop
  endfacet
  facet normal 0 0 1
    outer loop
      vertex -47.75 -13.75 3
      vertex -48.2723 -19.2919 3
      vertex -46 -20 3
    endloop
  endfacet
  facet normal 0 0 1
    outer loop
      vertex -50 -16 3
      vertex -47.75 -13.75 3
      vertex -48.997 -13.3137 3
    endloop
  endfacet
  facet normal 0 0 1
    outer loop
      vertex -47.75 -13.75 3
      vertex -49.5418 -17.8589 3
      vertex -48.2723 -19.2919 3
    endloop
  endfacet
  facet normal 0 0 1
    outer loop
      vertex -50 -16 3
      vertex -48.997 -13.3137 3
      vertex -49.75 -11.75 3
    endloop
  endfacet
  facet normal 0 0 1
    outer loop
      vertex -47.75 -13.75 3
      vertex -50 -16 3
      vertex -49.5418 -17.8589 3
    endloop
  endfacet
  facet normal 0 0 1
    outer loop
      vertex -49.75 11.75 3
      vertex -50 -16 3
      vertex -49.75 -11.75 3
    endloop
  endfacet
  facet normal 0 0 1
    outer loop
      vertex 11.47 10.18 3
      vertex -10.25 7 3
      vertex 11.47 7 3
    endloop
  endfacet
  facet normal 0 0 1
    outer loop
      vertex -12.25 13.75 2.2
      vertex -10.25 7 2.2
      vertex -10.25 11.75 2.2
    endloop
  endfacet
  facet normal -0 0 1
    outer loop
      vertex -47.75 13.75 2.2
      vertex -10.25 7 2.2
      vertex -12.25 13.75 2.2
    endloop
  endfacet
  facet normal 0 0 1
    outer loop
      vertex -10.25 -7 2.2
      vertex -12.25 -13.75 2.2
      vertex -10.25 -11.75 2.2
    endloop
  endfacet
  facet normal 0 0 1
    outer loop
      vertex -12.25 13.75 2.2
      vertex -10.25 11.75 2.2
      vertex -11.003 13.3137 2.2
    endloop
  endfacet
  facet normal 0 0 1
    outer loop
      vertex -10.25 7 2.2
      vertex -47.75 13.75 2.2
      vertex -10.25 -7 2.2
    endloop
  endfacet
  facet normal 0 0 1
    outer loop
      vertex -10.25 -11.75 2.2
      vertex -12.25 -13.75 2.2
      vertex -10.6863 -12.997 2.2
    endloop
  endfacet
  facet normal 0 0 1
    outer loop
      vertex -47.75 -13.75 2.2
      vertex -10.25 -7 2.2
      vertex -47.75 13.75 2.2
    endloop
  endfacet
  facet normal 0 0 1
    outer loop
      vertex -10.25 -7 2.2
      vertex -47.75 -13.75 2.2
      vertex -12.25 -13.75 2.2
    endloop
  endfacet
  facet normal -0 0 1
    outer loop
      vertex -49.75 -11.75 2.2
      vertex -47.75 -13.75 2.2
      vertex -47.75 13.75 2.2
    endloop
  endfacet
  facet normal 0 0 1
    outer loop
      vertex -49.75 11.75 2.2
      vertex -47.75 13.75 2.2
      vertex -49.3137 12.997 2.2
    endloop
  endfacet
  facet normal 0 0 1
    outer loop
      vertex -49.75 -11.75 2.2
      vertex -47.75 13.75 2.2
      vertex -49.75 11.75 2.2
    endloop
  endfacet
  facet normal 0 0 1
    outer loop
      vertex -47.75 -13.75 2.2
      vertex -49.75 -11.75 2.2
      vertex -48.997 -13.3137 2.2
    endloop
  endfacet
  facet normal -0 0 1
    outer loop
      vertex -10.25 7 2.2
      vertex 11.47 -7 2.2
      vertex 11.47 7 2.2
    endloop
  endfacet
  facet normal 0 0 1
    outer loop
      vertex 11.47 -7 2.2
      vertex -10.25 7 2.2
      vertex -10.25 -7 2.2
    endloop
  endfacet
  facet normal 0 0 1
    outer loop
      vertex 46.53 -12.18 2.2
      vertex 48.53 -10.18 2.2
      vertex 48.53 10.18 2.2
    endloop
  endfacet
  facet normal 0 0 1
    outer loop
      vertex 46.53 12.18 2.2
      vertex 48.53 10.18 2.2
      vertex 47.777 11.7437 2.2
    endloop
  endfacet
  facet normal 0 0 1
    outer loop
      vertex 46.53 -12.18 2.2
      vertex 48.53 10.18 2.2
      vertex 46.53 12.18 2.2
    endloop
  endfacet
  facet normal 0 0 1
    outer loop
      vertex 48.53 -10.18 2.2
      vertex 46.53 -12.18 2.2
      vertex 48.0937 -11.427 2.2
    endloop
  endfacet
  facet normal 0 0 1
    outer loop
      vertex 11.47 7 2.2
      vertex 46.53 12.18 2.2
      vertex 13.47 12.18 2.2
    endloop
  endfacet
  facet normal 0 0 1
    outer loop
      vertex 46.53 12.18 2.2
      vertex 11.47 7 2.2
      vertex 46.53 -12.18 2.2
    endloop
  endfacet
  facet normal 0 0 1
    outer loop
      vertex 46.53 -12.18 2.2
      vertex 11.47 -7 2.2
      vertex 13.47 -12.18 2.2
    endloop
  endfacet
  facet normal 0 0 1
    outer loop
      vertex 11.47 10.18 2.2
      vertex 13.47 12.18 2.2
      vertex 11.9063 11.427 2.2
    endloop
  endfacet
  facet normal 0 0 1
    outer loop
      vertex 13.47 12.18 2.2
      vertex 11.47 10.18 2.2
      vertex 11.47 7 2.2
    endloop
  endfacet
  facet normal 0 0 1
    outer loop
      vertex 46.53 -12.18 2.2
      vertex 11.47 7 2.2
      vertex 11.47 -7 2.2
    endloop
  endfacet
  facet normal -0 0 1
    outer loop
      vertex 11.47 -10.18 2.2
      vertex 13.47 -12.18 2.2
      vertex 11.47 -7 2.2
    endloop
  endfacet
  facet normal 0 0 1
    outer loop
      vertex 13.47 -12.18 2.2
      vertex 11.47 -10.18 2.2
      vertex 12.223 -11.7437 2.2
    endloop
  endfacet
  facet normal 0 -1 0
    outer loop
      vertex -10.25 7 2.2
      vertex 11.47 7 3
      vertex -10.25 7 3
    endloop
  endfacet
  facet normal 0 -1 -0
    outer loop
      vertex 11.47 7 3
      vertex -10.25 7 2.2
      vertex 11.47 7 2.2
    endloop
  endfacet
  facet normal 0 1 -0
    outer loop
      vertex 11.47 -7 2.2
      vertex -10.25 -7 3
      vertex 11.47 -7 3
    endloop
  endfacet
  facet normal 0 1 0
    outer loop
      vertex -10.25 -7 3
      vertex 11.47 -7 2.2
      vertex -10.25 -7 2.2
    endloop
  endfacet
  facet normal 0 -1 0
    outer loop
      vertex -47.75 13.75 2.2
      vertex -12.25 13.75 3
      vertex -47.75 13.75 3
    endloop
  endfacet
  facet normal 0 -1 -0
    outer loop
      vertex -12.25 13.75 3
      vertex -47.75 13.75 2.2
      vertex -12.25 13.75 2.2
    endloop
  endfacet
  facet normal -0.433866 0.900977 0
    outer loop
      vertex -10.6863 -12.997 2.2
      vertex -12.25 -13.75 3
      vertex -10.6863 -12.997 3
    endloop
  endfacet
  facet normal -0.433866 0.900977 0
    outer loop
      vertex -12.25 -13.75 3
      vertex -10.6863 -12.997 2.2
      vertex -12.25 -13.75 2.2
    endloop
  endfacet
  facet normal 0.900977 0.433866 0
    outer loop
      vertex -48.997 -13.3137 3
      vertex -49.75 -11.75 2.2
      vertex -49.75 -11.75 3
    endloop
  endfacet
  facet normal 0.900977 0.433866 0
    outer loop
      vertex -49.75 -11.75 2.2
      vertex -48.997 -13.3137 3
      vertex -48.997 -13.3137 2.2
    endloop
  endfacet
  facet normal 0.943894 -0.330249 0
    outer loop
      vertex -49.75 11.75 3
      vertex -49.3137 12.997 2.2
      vertex -49.3137 12.997 3
    endloop
  endfacet
  facet normal 0.943894 -0.330249 0
    outer loop
      vertex -49.3137 12.997 2.2
      vertex -49.75 11.75 3
      vertex -49.75 11.75 2.2
    endloop
  endfacet
  facet normal -0.330249 -0.943894 0
    outer loop
      vertex -12.25 13.75 2.2
      vertex -11.003 13.3137 3
      vertex -12.25 13.75 3
    endloop
  endfacet
  facet normal -0.330249 -0.943894 -0
    outer loop
      vertex -11.003 13.3137 3
      vertex -12.25 13.75 2.2
      vertex -11.003 13.3137 2.2
    endloop
  endfacet
  facet normal 0.433866 -0.900977 0
    outer loop
      vertex -49.3137 12.997 2.2
      vertex -47.75 13.75 3
      vertex -49.3137 12.997 3
    endloop
  endfacet
  facet normal 0.433866 -0.900977 0
    outer loop
      vertex -47.75 13.75 3
      vertex -49.3137 12.997 2.2
      vertex -47.75 13.75 2.2
    endloop
  endfacet
  facet normal -0.900977 -0.433866 0
    outer loop
      vertex -10.25 11.75 2.2
      vertex -11.003 13.3137 3
      vertex -11.003 13.3137 2.2
    endloop
  endfacet
  facet normal -0.900977 -0.433866 0
    outer loop
      vertex -11.003 13.3137 3
      vertex -10.25 11.75 2.2
      vertex -10.25 11.75 3
    endloop
  endfacet
  facet normal 1 -0 0
    outer loop
      vertex -49.75 -11.75 3
      vertex -49.75 11.75 2.2
      vertex -49.75 11.75 3
    endloop
  endfacet
  facet normal 1 0 0
    outer loop
      vertex -49.75 11.75 2.2
      vertex -49.75 -11.75 3
      vertex -49.75 -11.75 2.2
    endloop
  endfacet
  facet normal -1 0 0
    outer loop
      vertex -10.25 -11.75 2.2
      vertex -10.25 -7 3
      vertex -10.25 -7 2.2
    endloop
  endfacet
  facet normal -1 -0 0
    outer loop
      vertex -10.25 -7 3
      vertex -10.25 -11.75 2.2
      vertex -10.25 -11.75 3
    endloop
  endfacet
  facet normal -1 0 0
    outer loop
      vertex -10.25 7 2.2
      vertex -10.25 11.75 3
      vertex -10.25 11.75 2.2
    endloop
  endfacet
  facet normal -1 -0 0
    outer loop
      vertex -10.25 11.75 3
      vertex -10.25 7 2.2
      vertex -10.25 7 3
    endloop
  endfacet
  facet normal 0.330249 0.943894 -0
    outer loop
      vertex -47.75 -13.75 2.2
      vertex -48.997 -13.3137 3
      vertex -47.75 -13.75 3
    endloop
  endfacet
  facet normal 0.330249 0.943894 0
    outer loop
      vertex -48.997 -13.3137 3
      vertex -47.75 -13.75 2.2
      vertex -48.997 -13.3137 2.2
    endloop
  endfacet
  facet normal 0 1 -0
    outer loop
      vertex -12.25 -13.75 2.2
      vertex -47.75 -13.75 3
      vertex -12.25 -13.75 3
    endloop
  endfacet
  facet normal 0 1 0
    outer loop
      vertex -47.75 -13.75 3
      vertex -12.25 -13.75 2.2
      vertex -47.75 -13.75 2.2
    endloop
  endfacet
  facet normal -0.943894 0.330249 0
    outer loop
      vertex -10.6863 -12.997 2.2
      vertex -10.25 -11.75 3
      vertex -10.25 -11.75 2.2
    endloop
  endfacet
  facet normal -0.943894 0.330249 0
    outer loop
      vertex -10.25 -11.75 3
      vertex -10.6863 -12.997 2.2
      vertex -10.6863 -12.997 3
    endloop
  endfacet
  facet normal 0 -1 0
    outer loop
      vertex 13.47 12.18 2.2
      vertex 46.53 12.18 3
      vertex 13.47 12.18 3
    endloop
  endfacet
  facet normal 0 -1 -0
    outer loop
      vertex 46.53 12.18 3
      vertex 13.47 12.18 2.2
      vertex 46.53 12.18 2.2
    endloop
  endfacet
  facet normal -0.433866 0.900977 0
    outer loop
      vertex 48.0937 -11.427 2.2
      vertex 46.53 -12.18 3
      vertex 48.0937 -11.427 3
    endloop
  endfacet
  facet normal -0.433866 0.900977 0
    outer loop
      vertex 46.53 -12.18 3
      vertex 48.0937 -11.427 2.2
      vertex 46.53 -12.18 2.2
    endloop
  endfacet
  facet normal 0.900977 0.433866 0
    outer loop
      vertex 12.223 -11.7437 3
      vertex 11.47 -10.18 2.2
      vertex 11.47 -10.18 3
    endloop
  endfacet
  facet normal 0.900977 0.433866 0
    outer loop
      vertex 11.47 -10.18 2.2
      vertex 12.223 -11.7437 3
      vertex 12.223 -11.7437 2.2
    endloop
  endfacet
  facet normal 0.943894 -0.330249 0
    outer loop
      vertex 11.47 10.18 3
      vertex 11.9063 11.427 2.2
      vertex 11.9063 11.427 3
    endloop
  endfacet
  facet normal 0.943894 -0.330249 0
    outer loop
      vertex 11.9063 11.427 2.2
      vertex 11.47 10.18 3
      vertex 11.47 10.18 2.2
    endloop
  endfacet
  facet normal -0.330249 -0.943894 0
    outer loop
      vertex 46.53 12.18 2.2
      vertex 47.777 11.7437 3
      vertex 46.53 12.18 3
    endloop
  endfacet
  facet normal -0.330249 -0.943894 -0
    outer loop
      vertex 47.777 11.7437 3
      vertex 46.53 12.18 2.2
      vertex 47.777 11.7437 2.2
    endloop
  endfacet
  facet normal 0.433866 -0.900977 0
    outer loop
      vertex 11.9063 11.427 2.2
      vertex 13.47 12.18 3
      vertex 11.9063 11.427 3
    endloop
  endfacet
  facet normal 0.433866 -0.900977 0
    outer loop
      vertex 13.47 12.18 3
      vertex 11.9063 11.427 2.2
      vertex 13.47 12.18 2.2
    endloop
  endfacet
  facet normal -0.900977 -0.433866 0
    outer loop
      vertex 48.53 10.18 2.2
      vertex 47.777 11.7437 3
      vertex 47.777 11.7437 2.2
    endloop
  endfacet
  facet normal -0.900977 -0.433866 0
    outer loop
      vertex 47.777 11.7437 3
      vertex 48.53 10.18 2.2
      vertex 48.53 10.18 3
    endloop
  endfacet
  facet normal 1 -0 0
    outer loop
      vertex 11.47 7 3
      vertex 11.47 10.18 2.2
      vertex 11.47 10.18 3
    endloop
  endfacet
  facet normal 1 0 0
    outer loop
      vertex 11.47 10.18 2.2
      vertex 11.47 7 3
      vertex 11.47 7 2.2
    endloop
  endfacet
  facet normal 1 -0 0
    outer loop
      vertex 11.47 -10.18 3
      vertex 11.47 -7 2.2
      vertex 11.47 -7 3
    endloop
  endfacet
  facet normal 1 0 0
    outer loop
      vertex 11.47 -7 2.2
      vertex 11.47 -10.18 3
      vertex 11.47 -10.18 2.2
    endloop
  endfacet
  facet normal -1 0 0
    outer loop
      vertex 48.53 -10.18 2.2
      vertex 48.53 10.18 3
      vertex 48.53 10.18 2.2
    endloop
  endfacet
  facet normal -1 -0 0
    outer loop
      vertex 48.53 10.18 3
      vertex 48.53 -10.18 2.2
      vertex 48.53 -10.18 3
    endloop
  endfacet
  facet normal 0.330249 0.943894 -0
    outer loop
      vertex 13.47 -12.18 2.2
      vertex 12.223 -11.7437 3
      vertex 13.47 -12.18 3
    endloop
  endfacet
  facet normal 0.330249 0.943894 0
    outer loop
      vertex 12.223 -11.7437 3
      vertex 13.47 -12.18 2.2
      vertex 12.223 -11.7437 2.2
    endloop
  endfacet
  facet normal 0 1 -0
    outer loop
      vertex 46.53 -12.18 2.2
      vertex 13.47 -12.18 3
      vertex 46.53 -12.18 3
    endloop
  endfacet
  facet normal 0 1 0
    outer loop
      vertex 13.47 -12.18 3
      vertex 46.53 -12.18 2.2
      vertex 13.47 -12.18 2.2
    endloop
  endfacet
  facet normal -0.943894 0.330249 0
    outer loop
      vertex 48.0937 -11.427 2.2
      vertex 48.53 -10.18 3
      vertex 48.53 -10.18 2.2
    endloop
  endfacet
  facet normal -0.943894 0.330249 0
    outer loop
      vertex 48.53 -10.18 3
      vertex 48.0937 -11.427 2.2
      vertex 48.0937 -11.427 3
    endloop
  endfacet
  facet normal 0 -1 0
    outer loop
      vertex -20.45 41.65 2.2
      vertex 20.45 41.65 3
      vertex -20.45 41.65 3
    endloop
  endfacet
  facet normal 0 -1 -0
    outer loop
      vertex 20.45 41.65 3
      vertex -20.45 41.65 2.2
      vertex 20.45 41.65 2.2
    endloop
  endfacet
  facet normal -0.433866 0.900977 0
    outer loop
      vertex 22.0137 15.103 2.2
      vertex 20.45 14.35 3
      vertex 22.0137 15.103 3
    endloop
  endfacet
  facet normal -0.433866 0.900977 0
    outer loop
      vertex 20.45 14.35 3
      vertex 22.0137 15.103 2.2
      vertex 20.45 14.35 2.2
    endloop
  endfacet
  facet normal 0.900977 0.433866 0
    outer loop
      vertex -21.697 14.7863 3
      vertex -22.45 16.35 2.2
      vertex -22.45 16.35 3
    endloop
  endfacet
  facet normal 0.900977 0.433866 0
    outer loop
      vertex -22.45 16.35 2.2
      vertex -21.697 14.7863 3
      vertex -21.697 14.7863 2.2
    endloop
  endfacet
  facet normal 0.943894 -0.330249 0
    outer loop
      vertex -22.45 39.65 3
      vertex -22.0137 40.897 2.2
      vertex -22.0137 40.897 3
    endloop
  endfacet
  facet normal 0.943894 -0.330249 0
    outer loop
      vertex -22.0137 40.897 2.2
      vertex -22.45 39.65 3
      vertex -22.45 39.65 2.2
    endloop
  endfacet
  facet normal 0 0 1
    outer loop
      vertex 20.45 14.35 2.2
      vertex 22.45 16.35 2.2
      vertex 22.45 39.65 2.2
    endloop
  endfacet
  facet normal 0 0 1
    outer loop
      vertex 20.45 41.65 2.2
      vertex 22.45 39.65 2.2
      vertex 21.697 41.2137 2.2
    endloop
  endfacet
  facet normal 0 0 1
    outer loop
      vertex 20.45 14.35 2.2
      vertex 22.45 39.65 2.2
      vertex 20.45 41.65 2.2
    endloop
  endfacet
  facet normal 0 0 1
    outer loop
      vertex 22.45 16.35 2.2
      vertex 20.45 14.35 2.2
      vertex 22.0137 15.103 2.2
    endloop
  endfacet
  facet normal -0 0 1
    outer loop
      vertex -20.45 41.65 2.2
      vertex 20.45 14.35 2.2
      vertex 20.45 41.65 2.2
    endloop
  endfacet
  facet normal 0 0 1
    outer loop
      vertex -20.45 41.65 2.2
      vertex -20.45 14.35 2.2
      vertex 20.45 14.35 2.2
    endloop
  endfacet
  facet normal -0 0 1
    outer loop
      vertex -22.45 16.35 2.2
      vertex -20.45 14.35 2.2
      vertex -20.45 41.65 2.2
    endloop
  endfacet
  facet normal 0 0 1
    outer loop
      vertex -22.45 39.65 2.2
      vertex -20.45 41.65 2.2
      vertex -22.0137 40.897 2.2
    endloop
  endfacet
  facet normal 0 0 1
    outer loop
      vertex -22.45 16.35 2.2
      vertex -20.45 41.65 2.2
      vertex -22.45 39.65 2.2
    endloop
  endfacet
  facet normal 0 0 1
    outer loop
      vertex -20.45 14.35 2.2
      vertex -22.45 16.35 2.2
      vertex -21.697 14.7863 2.2
    endloop
  endfacet
  facet normal -0.330249 -0.943894 0
    outer loop
      vertex 20.45 41.65 2.2
      vertex 21.697 41.2137 3
      vertex 20.45 41.65 3
    endloop
  endfacet
  facet normal -0.330249 -0.943894 -0
    outer loop
      vertex 21.697 41.2137 3
      vertex 20.45 41.65 2.2
      vertex 21.697 41.2137 2.2
    endloop
  endfacet
  facet normal 0.433866 -0.900977 0
    outer loop
      vertex -22.0137 40.897 2.2
      vertex -20.45 41.65 3
      vertex -22.0137 40.897 3
    endloop
  endfacet
  facet normal 0.433866 -0.900977 0
    outer loop
      vertex -20.45 41.65 3
      vertex -22.0137 40.897 2.2
      vertex -20.45 41.65 2.2
    endloop
  endfacet
  facet normal -0.900977 -0.433866 0
    outer loop
      vertex 22.45 39.65 2.2
      vertex 21.697 41.2137 3
      vertex 21.697 41.2137 2.2
    endloop
  endfacet
  facet normal -0.900977 -0.433866 0
    outer loop
      vertex 21.697 41.2137 3
      vertex 22.45 39.65 2.2
      vertex 22.45 39.65 3
    endloop
  endfacet
  facet normal 1 -0 0
    outer loop
      vertex -22.45 16.35 3
      vertex -22.45 39.65 2.2
      vertex -22.45 39.65 3
    endloop
  endfacet
  facet normal 1 0 0
    outer loop
      vertex -22.45 39.65 2.2
      vertex -22.45 16.35 3
      vertex -22.45 16.35 2.2
    endloop
  endfacet
  facet normal -1 0 0
    outer loop
      vertex 22.45 16.35 2.2
      vertex 22.45 39.65 3
      vertex 22.45 39.65 2.2
    endloop
  endfacet
  facet normal -1 -0 0
    outer loop
      vertex 22.45 39.65 3
      vertex 22.45 16.35 2.2
      vertex 22.45 16.35 3
    endloop
  endfacet
  facet normal 0.330249 0.943894 -0
    outer loop
      vertex -20.45 14.35 2.2
      vertex -21.697 14.7863 3
      vertex -20.45 14.35 3
    endloop
  endfacet
  facet normal 0.330249 0.943894 0
    outer loop
      vertex -21.697 14.7863 3
      vertex -20.45 14.35 2.2
      vertex -21.697 14.7863 2.2
    endloop
  endfacet
  facet normal 0 1 -0
    outer loop
      vertex 20.45 14.35 2.2
      vertex -20.45 14.35 3
      vertex 20.45 14.35 3
    endloop
  endfacet
  facet normal 0 1 0
    outer loop
      vertex -20.45 14.35 3
      vertex 20.45 14.35 2.2
      vertex -20.45 14.35 2.2
    endloop
  endfacet
  facet normal -0.943894 0.330249 0
    outer loop
      vertex 22.0137 15.103 2.2
      vertex 22.45 16.35 3
      vertex 22.45 16.35 2.2
    endloop
  endfacet
  facet normal -0.943894 0.330249 0
    outer loop
      vertex 22.45 16.35 3
      vertex 22.0137 15.103 2.2
      vertex 22.0137 15.103 3
    endloop
  endfacet
endsolid OpenSCAD_Model
